<svg xmlns="http://www.w3.org/2000/svg" xmlns:xlink="http://www.w3.org/1999/xlink" width="500" zoomAndPan="magnify" viewBox="0 0 375 374.999991" height="500" preserveAspectRatio="xMidYMid meet" version="1.0"><defs><g/><clipPath id="7e68c59e12"><path d="M 92.113281 90.816406 L 279.613281 90.816406 L 279.613281 278 L 92.113281 278 Z M 92.113281 90.816406 " clip-rule="nonzero"/></clipPath><clipPath id="0589c2d09d"><rect x="0" width="260" y="0" height="217"/></clipPath></defs><g clip-path="url(#7e68c59e12)"><path fill="#122620" d="M 185.699219 277.988281 C 133.996094 277.988281 92.113281 235.816406 92.113281 184.402344 C 92.113281 132.988281 133.996094 90.816406 185.699219 90.816406 C 237.402344 90.816406 279.285156 132.699219 279.285156 184.402344 C 279.285156 236.105469 237.113281 277.988281 185.699219 277.988281 Z M 185.699219 96.59375 C 137.175781 96.59375 97.890625 135.875 97.890625 184.402344 C 97.890625 232.929688 137.175781 272.210938 185.699219 272.210938 C 234.226562 272.210938 273.507812 232.929688 273.507812 184.402344 C 273.507812 135.875 233.9375 96.59375 185.699219 96.59375 Z M 185.699219 96.59375 " fill-opacity="1" fill-rule="nonzero"/></g><g transform="matrix(1, 0, 0, 1, 65, 79)"><g clip-path="url(#0589c2d09d)"><g fill="#fffef9" fill-opacity="1"><g transform="translate(8.571542, 124.130765)"><g><path d="M 5.875 29.3125 C 6.496094 29.3125 7.21875 28.929688 8.046875 28.160156 C 9.523438 26.796875 10.859375 25.222656 12.054688 23.441406 C 13.324219 21.558594 14.246094 20.003906 14.824219 18.777344 L 14.847656 18.726562 L 14.875 18.675781 C 17.167969 14.085938 18.65625 10.277344 19.339844 7.25 C 20.214844 3.363281 21.074219 0.695312 21.917969 -0.753906 L 26.054688 1.660156 L 26.84375 6.386719 C 27.164062 6.332031 27.386719 6.269531 27.511719 6.195312 C 27.324219 6.304688 27.0625 6.492188 26.730469 6.757812 C 25.765625 7.519531 24.820312 8.304688 23.898438 9.105469 C 23.113281 9.789062 22.589844 10.289062 22.328125 10.601562 L 22.1875 10.769531 L 22.035156 10.921875 C 20.636719 12.320312 19.023438 14.015625 17.195312 16.007812 C 15.453125 17.910156 13.789062 19.972656 12.199219 22.195312 C 10.746094 24.230469 9.644531 26.261719 8.902344 28.285156 C 8.332031 29.832031 8.199219 31.296875 8.507812 32.679688 L 3.832031 33.71875 L 4.617188 28.992188 C 5.601562 29.15625 6.394531 29.390625 6.996094 29.6875 C 6.589844 29.488281 6.203125 29.363281 5.832031 29.316406 C 5.796875 29.3125 5.773438 29.308594 5.761719 29.308594 C 5.789062 29.3125 5.828125 29.3125 5.875 29.3125 Z M 5.875 38.890625 C 4.609375 38.890625 3.554688 38.679688 2.710938 38.257812 C 2.941406 38.371094 3.140625 38.449219 3.308594 38.492188 C 3.261719 38.480469 3.175781 38.464844 3.042969 38.441406 L -0.144531 37.910156 L -0.84375 34.757812 C -1.558594 31.542969 -1.304688 28.28125 -0.0898438 24.972656 C 0.953125 22.144531 2.453125 19.363281 4.402344 16.628906 C 6.21875 14.085938 8.128906 11.722656 10.136719 9.535156 C 12.054688 7.441406 13.761719 5.644531 15.261719 4.148438 L 18.648438 7.535156 L 14.96875 4.46875 C 15.558594 3.761719 16.4375 2.898438 17.613281 1.878906 C 18.644531 0.976562 19.703125 0.101562 20.78125 -0.753906 C 22.449219 -2.074219 23.945312 -2.84375 25.265625 -3.0625 L 35.335938 -4.742188 L 30.191406 4.074219 C 29.84375 4.667969 29.34375 6.429688 28.683594 9.351562 C 27.832031 13.136719 26.085938 17.675781 23.441406 22.960938 L 19.15625 20.816406 L 23.492188 22.859375 C 22.707031 24.527344 21.542969 26.503906 20 28.792969 C 18.390625 31.1875 16.574219 33.316406 14.558594 35.1875 C 11.894531 37.65625 9 38.890625 5.875 38.890625 Z M 63.597656 -28.648438 C 63.867188 -29.589844 64.070312 -30.660156 64.210938 -31.851562 C 64.382812 -33.324219 64.558594 -34.710938 64.730469 -36.011719 C 65.253906 -39.742188 65.921875 -43.976562 66.738281 -48.710938 C 67.554688 -53.433594 68.433594 -58.160156 69.378906 -62.882812 C 70.320312 -67.578125 71.175781 -71.765625 71.941406 -75.441406 C 72.191406 -76.59375 72.480469 -78.101562 72.808594 -79.960938 C 73.132812 -81.78125 73.417969 -83.75 73.660156 -85.867188 C 73.886719 -87.824219 73.964844 -89.636719 73.890625 -91.296875 C 73.839844 -92.386719 73.695312 -93.132812 73.445312 -93.535156 L 77.527344 -96.042969 L 77.753906 -91.261719 C 77.035156 -91.226562 76.066406 -90.699219 74.84375 -89.683594 C 73.046875 -88.183594 71.203125 -86.261719 69.316406 -83.914062 C 67.339844 -81.449219 65.480469 -78.863281 63.738281 -76.152344 C 61.945312 -73.355469 60.339844 -70.746094 58.921875 -68.335938 C 57.550781 -65.988281 56.550781 -64.160156 55.933594 -62.84375 L 50.703125 -51.621094 C 49.582031 -49.136719 48.40625 -46.152344 47.175781 -42.660156 C 45.921875 -39.109375 44.753906 -35.539062 43.667969 -31.949219 C 42.574219 -28.339844 41.65625 -25.117188 40.902344 -22.273438 L 36.273438 -23.5 L 40.984375 -22.644531 C 40.789062 -21.578125 40.441406 -20.109375 39.941406 -18.234375 C 39.480469 -16.515625 39.039062 -14.820312 38.621094 -13.144531 C 38.25 -11.664062 38.035156 -10.617188 37.972656 -9.996094 L 33.207031 -10.472656 L 31.691406 -15.015625 C 32.011719 -15.125 32.339844 -15.296875 32.679688 -15.535156 C 33.476562 -16.097656 34.253906 -16.617188 35.011719 -17.089844 L 35.121094 -17.160156 L 47.875 -24.1875 L 48 -24.246094 C 49.972656 -25.191406 52.160156 -26.21875 54.5625 -27.332031 C 57.074219 -28.5 59.464844 -29.492188 61.726562 -30.304688 L 62.0625 -30.425781 L 62.410156 -30.496094 C 63.132812 -30.640625 63.882812 -30.824219 64.652344 -31.042969 C 65.171875 -31.191406 65.566406 -31.339844 65.824219 -31.492188 L 68.203125 -27.332031 Z M 72.808594 -26.015625 L 72.273438 -24.140625 L 70.578125 -23.171875 C 69.648438 -22.640625 68.546875 -22.195312 67.28125 -21.832031 C 66.265625 -21.542969 65.265625 -21.296875 64.289062 -21.101562 L 63.347656 -25.800781 L 64.972656 -21.292969 C 62.976562 -20.574219 60.851562 -19.691406 58.597656 -18.644531 C 56.230469 -17.546875 54.074219 -16.53125 52.132812 -15.601562 L 50.066406 -19.925781 L 52.378906 -15.730469 L 39.859375 -8.832031 L 37.550781 -13.027344 L 40.085938 -8.964844 C 39.484375 -8.585938 38.855469 -8.167969 38.203125 -7.710938 C 37.09375 -6.925781 35.933594 -6.332031 34.722656 -5.929688 L 27.707031 -3.589844 L 28.441406 -10.949219 C 28.550781 -12.03125 28.84375 -13.539062 29.328125 -15.464844 C 29.757812 -17.195312 30.210938 -18.945312 30.6875 -20.71875 C 31.121094 -22.335938 31.414062 -23.550781 31.558594 -24.355469 L 31.59375 -24.542969 L 31.640625 -24.726562 C 32.421875 -27.675781 33.375 -31.007812 34.496094 -34.722656 C 35.625 -38.453125 36.839844 -42.160156 38.140625 -45.847656 C 39.464844 -49.59375 40.757812 -52.867188 42.019531 -55.664062 L 47.265625 -66.921875 C 48.007812 -68.5 49.140625 -70.585938 50.660156 -73.179688 C 52.140625 -75.703125 53.8125 -78.417969 55.679688 -81.324219 C 57.601562 -84.320312 59.65625 -87.183594 61.847656 -89.914062 C 64.136719 -92.757812 66.421875 -95.132812 68.710938 -97.042969 C 71.578125 -99.429688 74.441406 -100.691406 77.296875 -100.828125 L 80.121094 -100.964844 L 81.605469 -98.554688 C 82.71875 -96.742188 83.339844 -94.464844 83.460938 -91.722656 C 83.554688 -89.554688 83.460938 -87.234375 83.175781 -84.765625 C 82.910156 -82.457031 82.597656 -80.296875 82.242188 -78.285156 C 81.890625 -76.3125 81.582031 -74.710938 81.320312 -73.480469 C 80.554688 -69.832031 79.707031 -65.671875 78.773438 -61.003906 C 77.84375 -56.363281 76.980469 -51.722656 76.179688 -47.078125 C 75.378906 -42.449219 74.726562 -38.335938 74.226562 -34.746094 C 74.058594 -33.492188 73.890625 -32.15625 73.726562 -30.730469 C 73.523438 -29.027344 73.21875 -27.457031 72.808594 -26.015625 Z M 5.109375 43.234375 C 1.582031 43.234375 -1.238281 41.867188 -3.34375 39.132812 C -5.160156 36.78125 -6.066406 34.039062 -6.066406 30.90625 L -6.066406 30.761719 C -5.957031 27.222656 -4.925781 23.574219 -2.972656 19.820312 C -1.203125 16.421875 0.996094 13.109375 3.628906 9.875 C 6.167969 6.757812 8.796875 3.859375 11.519531 1.183594 C 14.210938 -1.464844 16.628906 -3.679688 18.773438 -5.46875 C 20.683594 -7.015625 22.109375 -8.117188 23.050781 -8.777344 C 23.273438 -8.929688 23.441406 -9.066406 23.558594 -9.179688 C 23.582031 -9.199219 23.59375 -9.214844 23.597656 -9.21875 C 23.570312 -9.183594 23.542969 -9.140625 23.507812 -9.085938 C 23.484375 -9.046875 23.46875 -9.023438 23.464844 -9.011719 C 23.484375 -9.054688 23.507812 -9.117188 23.535156 -9.195312 C 23.621094 -9.453125 23.710938 -9.789062 23.796875 -10.199219 C 25.269531 -16.863281 27.019531 -23.792969 29.042969 -30.992188 C 31.085938 -38.242188 33.472656 -45.429688 36.207031 -52.550781 C 38.964844 -59.722656 42.113281 -66.59375 45.660156 -73.160156 C 49.253906 -79.8125 53.230469 -85.8125 57.59375 -91.15625 C 58.566406 -92.390625 59.964844 -94.011719 61.789062 -96.011719 C 63.761719 -98.179688 65.929688 -100.105469 68.292969 -101.792969 C 71.210938 -103.878906 74.160156 -104.921875 77.140625 -104.921875 C 78.984375 -104.921875 80.605469 -104.578125 82.011719 -103.898438 C 83.695312 -103.078125 84.972656 -101.847656 85.84375 -100.203125 C 86.945312 -98.121094 87.554688 -95.785156 87.675781 -93.195312 C 87.761719 -91.25 87.808594 -89.5625 87.808594 -88.125 C 87.808594 -86.28125 87.558594 -83.609375 87.054688 -80.105469 C 86.582031 -76.789062 86.003906 -73.070312 85.316406 -68.945312 C 84.628906 -64.824219 83.875 -60.617188 83.0625 -56.324219 C 82.257812 -52.085938 81.535156 -48.167969 80.902344 -44.570312 C 80.269531 -40.996094 79.789062 -38.082031 79.453125 -35.824219 L 74.714844 -36.527344 L 79.46875 -35.933594 C 79.285156 -34.46875 79.078125 -33.128906 78.84375 -31.917969 C 78.6875 -31.109375 78.609375 -30.136719 78.609375 -28.992188 L 73.820312 -28.992188 L 73.820312 -33.78125 C 74.917969 -33.78125 75.871094 -33.871094 76.679688 -34.050781 C 78.167969 -34.382812 79.898438 -34.546875 81.867188 -34.546875 C 85.195312 -34.546875 87.585938 -33.453125 89.046875 -31.265625 C 89.734375 -30.230469 90.144531 -29.128906 90.269531 -27.957031 C 90.402344 -26.742188 90.222656 -25.554688 89.730469 -24.386719 C 89.171875 -23.058594 88.308594 -22.027344 87.144531 -21.289062 C 86.042969 -20.59375 84.792969 -20.242188 83.402344 -20.242188 C 82.472656 -20.242188 81.714844 -20.3125 81.125 -20.453125 C 79.871094 -20.75 78.882812 -21.394531 78.160156 -22.378906 C 77.253906 -23.621094 76.988281 -24.984375 77.371094 -26.46875 C 77.59375 -27.339844 78.027344 -28.09375 78.671875 -28.738281 C 77.703125 -27.769531 77.261719 -26.578125 77.355469 -25.171875 C 77.429688 -24.070312 77.839844 -23.113281 78.585938 -22.304688 C 79.007812 -21.84375 79.5 -21.484375 80.0625 -21.230469 C 80.574219 -21 81.007812 -20.882812 81.355469 -20.882812 C 81.160156 -20.882812 80.667969 -20.847656 79.875 -20.773438 C 79.109375 -20.703125 77.957031 -20.515625 76.421875 -20.207031 C 76.070312 -20.132812 75.808594 -20.066406 75.640625 -20.003906 C 75.960938 -20.117188 76.3125 -20.367188 76.699219 -20.753906 C 77.058594 -21.113281 77.328125 -21.5 77.511719 -21.914062 C 77.554688 -22.011719 77.582031 -22.082031 77.589844 -22.121094 C 77.539062 -21.921875 77.484375 -21.589844 77.425781 -21.117188 L 72.671875 -21.710938 L 77.441406 -21.269531 L 71.3125 45.015625 L 66.542969 44.574219 L 71.332031 44.574219 C 71.332031 46.558594 71.261719 48.519531 71.128906 50.464844 C 71.007812 52.183594 70.949219 54.09375 70.949219 56.195312 C 70.949219 58.578125 71.023438 60.472656 71.175781 61.875 C 71.410156 64.058594 71.339844 65.828125 70.964844 67.183594 C 70.484375 68.914062 69.4375 70.195312 67.820312 71.023438 C 66.761719 71.570312 65.527344 71.84375 64.113281 71.84375 C 62.242188 71.84375 60.65625 71.132812 59.355469 69.714844 C 58.515625 68.796875 57.871094 67.609375 57.425781 66.152344 C 56.855469 64.285156 56.472656 62.09375 56.273438 59.570312 C 56.09375 57.242188 56.023438 54.996094 56.070312 52.835938 C 56.113281 50.726562 56.183594 49.148438 56.28125 48.097656 L 61.050781 48.535156 L 56.261719 48.535156 C 56.261719 47.117188 56.371094 45.964844 56.59375 45.074219 C 56.628906 44.941406 56.644531 44.519531 56.644531 43.808594 C 56.644531 42.160156 56.734375 40.105469 56.910156 37.648438 L 57.421875 30.382812 C 57.589844 27.914062 57.714844 25.722656 57.796875 23.804688 L 57.804688 23.652344 L 61.777344 -13.789062 C 61.957031 -15.558594 62.15625 -17.171875 62.382812 -18.621094 C 62.558594 -19.738281 62.644531 -21.066406 62.644531 -22.605469 L 67.4375 -22.605469 L 69.578125 -18.324219 C 68.171875 -17.621094 66.378906 -16.914062 64.195312 -16.199219 C 62.484375 -15.644531 60.597656 -14.828125 58.527344 -13.757812 C 55.917969 -12.449219 53.816406 -11.410156 52.226562 -10.636719 C 50.746094 -9.917969 49.457031 -9.242188 48.355469 -8.613281 C 47.230469 -7.96875 45.996094 -7.222656 44.65625 -6.367188 L 38.882812 -2.71875 L 38.667969 -2.613281 C 38.65625 -2.605469 38.363281 -2.417969 37.789062 -2.046875 C 37.199219 -1.664062 36.648438 -1.269531 36.136719 -0.859375 C 35.832031 -0.617188 35.601562 -0.429688 35.4375 -0.292969 L 35.445312 -0.316406 C 35.789062 -0.660156 36.039062 -1.003906 36.195312 -1.351562 C 36.179688 -1.316406 36.148438 -1.226562 36.097656 -1.078125 C 35.933594 -0.59375 35.726562 0.125 35.480469 1.078125 C 34.914062 3.253906 34.15625 5.960938 33.203125 9.203125 C 32.230469 12.523438 31.039062 16.011719 29.628906 19.667969 C 28.160156 23.476562 26.390625 27.0625 24.320312 30.421875 C 22.101562 34.015625 19.511719 36.972656 16.546875 39.28125 C 13.167969 41.917969 9.355469 43.234375 5.109375 43.234375 Z M 5.109375 33.652344 C 7.160156 33.652344 9.011719 33.011719 10.65625 31.730469 C 12.714844 30.125 14.550781 28.011719 16.167969 25.394531 C 17.925781 22.535156 19.433594 19.480469 20.691406 16.222656 C 22.007812 12.8125 23.113281 9.574219 24.011719 6.507812 C 24.9375 3.359375 25.667969 0.746094 26.207031 -1.332031 C 26.515625 -2.507812 26.789062 -3.449219 27.027344 -4.15625 C 27.46875 -5.457031 28.015625 -6.4375 28.671875 -7.089844 C 28.882812 -7.300781 29.375 -7.714844 30.152344 -8.339844 C 30.914062 -8.949219 31.726562 -9.53125 32.585938 -10.085938 C 33.457031 -10.652344 34.058594 -11.015625 34.386719 -11.179688 L 36.527344 -6.898438 L 33.96875 -10.945312 L 39.511719 -14.449219 C 40.980469 -15.382812 42.34375 -16.210938 43.601562 -16.929688 C 44.886719 -17.664062 46.363281 -18.4375 48.035156 -19.25 C 49.59375 -20.007812 51.621094 -21.011719 54.121094 -22.261719 C 56.648438 -23.574219 59.019531 -24.589844 61.226562 -25.308594 C 62.957031 -25.871094 64.3125 -26.398438 65.292969 -26.890625 L 72.226562 -30.355469 L 72.226562 -22.605469 C 72.226562 -20.570312 72.101562 -18.75 71.847656 -17.140625 C 71.648438 -15.867188 71.46875 -14.410156 71.304688 -12.777344 L 67.34375 24.515625 L 62.582031 24.011719 L 67.367188 24.21875 C 67.28125 26.214844 67.152344 28.492188 66.976562 31.050781 L 66.464844 38.34375 C 66.304688 40.570312 66.222656 42.390625 66.222656 43.808594 C 66.222656 45.308594 66.109375 46.503906 65.886719 47.394531 C 65.855469 47.527344 65.839844 47.90625 65.839844 48.535156 L 65.839844 48.75 L 65.820312 48.96875 C 65.746094 49.792969 65.6875 51.152344 65.648438 53.042969 C 65.609375 54.882812 65.667969 56.8125 65.824219 58.824219 C 65.96875 60.644531 66.222656 62.15625 66.589844 63.355469 C 66.625 63.46875 66.652344 63.546875 66.671875 63.585938 C 66.621094 63.484375 66.535156 63.371094 66.417969 63.242188 C 65.820312 62.589844 65.050781 62.261719 64.113281 62.261719 C 64.140625 62.261719 64.160156 62.261719 64.167969 62.261719 C 64.148438 62.261719 64.117188 62.269531 64.082031 62.273438 C 63.878906 62.3125 63.667969 62.390625 63.441406 62.503906 C 62.570312 62.953125 62.003906 63.65625 61.734375 64.621094 C 61.726562 64.652344 61.71875 64.679688 61.714844 64.703125 C 61.714844 64.699219 61.71875 64.691406 61.71875 64.675781 C 61.726562 64.597656 61.734375 64.492188 61.738281 64.363281 C 61.742188 63.980469 61.714844 63.492188 61.652344 62.90625 C 61.464844 61.160156 61.367188 58.921875 61.367188 56.195312 C 61.367188 53.871094 61.4375 51.738281 61.570312 49.796875 C 61.691406 48.078125 61.753906 46.335938 61.753906 44.574219 L 61.753906 44.351562 L 67.910156 -22.230469 L 67.917969 -22.304688 C 68.03125 -23.199219 68.167969 -23.949219 68.328125 -24.558594 C 68.652344 -25.800781 69.1875 -26.789062 69.925781 -27.527344 C 70.847656 -28.449219 72.386719 -29.140625 74.542969 -29.601562 C 76.414062 -29.976562 77.902344 -30.214844 79.007812 -30.3125 C 80.089844 -30.410156 80.871094 -30.460938 81.355469 -30.460938 C 82.390625 -30.460938 83.277344 -30.292969 84.027344 -29.953125 C 84.644531 -29.671875 85.179688 -29.28125 85.636719 -28.789062 C 86.410156 -27.945312 86.839844 -26.953125 86.914062 -25.808594 C 87.011719 -24.324219 86.523438 -23.042969 85.445312 -21.964844 C 86.035156 -22.554688 86.4375 -23.261719 86.648438 -24.085938 C 87.019531 -25.527344 86.765625 -26.84375 85.886719 -28.046875 C 85.222656 -28.953125 84.375 -29.527344 83.34375 -29.773438 C 83.199219 -29.808594 83.089844 -29.828125 83.019531 -29.832031 C 83.105469 -29.824219 83.234375 -29.824219 83.402344 -29.824219 C 82.941406 -29.824219 82.480469 -29.675781 82.019531 -29.382812 C 81.492188 -29.050781 81.121094 -28.625 80.902344 -28.105469 C 80.75 -27.75 80.699219 -27.355469 80.746094 -26.929688 C 80.789062 -26.546875 80.898438 -26.21875 81.074219 -25.953125 C 81.40625 -25.460938 81.796875 -25.128906 82.257812 -24.964844 C 82.289062 -24.953125 82.320312 -24.945312 82.339844 -24.9375 C 82.335938 -24.941406 82.320312 -24.941406 82.300781 -24.945312 C 82.191406 -24.960938 82.046875 -24.96875 81.867188 -24.96875 C 80.601562 -24.96875 79.5625 -24.878906 78.757812 -24.699219 C 77.265625 -24.367188 75.621094 -24.203125 73.820312 -24.203125 L 69.03125 -24.203125 L 69.03125 -28.992188 C 69.03125 -30.742188 69.167969 -32.324219 69.4375 -33.726562 C 69.628906 -34.730469 69.804688 -35.863281 69.964844 -37.121094 L 69.96875 -37.175781 L 69.976562 -37.230469 C 70.324219 -39.570312 70.820312 -42.574219 71.46875 -46.238281 C 72.109375 -49.875 72.835938 -53.835938 73.648438 -58.113281 C 74.453125 -62.332031 75.191406 -66.46875 75.867188 -70.523438 C 76.542969 -74.574219 77.109375 -78.21875 77.574219 -81.460938 C 78.007812 -84.511719 78.226562 -86.734375 78.226562 -88.125 C 78.226562 -89.414062 78.1875 -90.960938 78.105469 -92.761719 C 78.050781 -93.917969 77.808594 -94.90625 77.378906 -95.71875 C 77.484375 -95.519531 77.632812 -95.375 77.828125 -95.28125 C 77.742188 -95.320312 77.515625 -95.34375 77.140625 -95.34375 C 76.207031 -95.34375 75.113281 -94.894531 73.859375 -94 C 72.050781 -92.707031 70.386719 -91.226562 68.867188 -89.5625 C 67.203125 -87.734375 65.917969 -86.242188 65.015625 -85.097656 C 61.035156 -80.222656 57.394531 -74.726562 54.089844 -68.609375 C 50.738281 -62.402344 47.757812 -55.90625 45.148438 -49.113281 C 42.519531 -42.269531 40.226562 -35.363281 38.265625 -28.398438 C 36.289062 -21.375 34.589844 -14.640625 33.164062 -8.191406 C 32.792969 -6.464844 32.292969 -5.089844 31.667969 -4.066406 C 30.980469 -2.949219 29.9375 -1.90625 28.546875 -0.929688 C 27.785156 -0.398438 26.574219 0.542969 24.90625 1.890625 C 22.964844 3.511719 20.742188 5.550781 18.238281 8.011719 C 15.765625 10.441406 13.375 13.082031 11.058594 15.925781 C 8.835938 18.652344 6.992188 21.425781 5.527344 24.242188 C 4.246094 26.703125 3.574219 28.972656 3.511719 31.054688 L -1.277344 30.90625 L 3.511719 30.90625 C 3.511719 31.863281 3.753906 32.65625 4.238281 33.28125 C 4.429688 33.53125 4.71875 33.652344 5.109375 33.652344 Z M 5.109375 33.652344 "/></g></g></g><g fill="#fffef9" fill-opacity="1"><g transform="translate(87.750708, 124.130765)"><g><path d="M -4.660156 -15.582031 C -4.660156 -17.832031 -4.339844 -20.292969 -3.699219 -22.960938 C -3.085938 -25.5 -2.289062 -27.96875 -1.300781 -30.367188 C -0.25 -32.914062 0.90625 -35.03125 2.171875 -36.71875 L 2.3125 -36.90625 L 2.472656 -37.082031 C 4.359375 -39.140625 6.472656 -40.167969 8.8125 -40.167969 C 10.40625 -40.167969 11.949219 -39.753906 13.4375 -38.925781 L 15.375 -37.851562 L 15.808594 -35.679688 C 15.75 -35.964844 15.570312 -36.308594 15.261719 -36.71875 C 16.027344 -35.699219 16.410156 -34.355469 16.410156 -32.695312 C 16.410156 -31.933594 16.164062 -31.027344 15.664062 -29.976562 C 15.457031 -29.539062 15.15625 -28.925781 14.757812 -28.128906 C 14.058594 -26.726562 13.285156 -24.945312 12.445312 -22.785156 C 11.644531 -20.722656 10.992188 -18.535156 10.492188 -16.226562 C 10.09375 -14.386719 10.0625 -12.753906 10.40625 -11.335938 L 5.746094 -10.21875 L 4.234375 -14.761719 C 4.34375 -14.796875 4.484375 -14.925781 4.65625 -15.148438 C 5.371094 -16.0625 6 -16.90625 6.550781 -17.691406 L 14.179688 -28.878906 C 15.039062 -30.085938 15.753906 -31.117188 16.320312 -31.96875 C 17.089844 -33.121094 18.078125 -34 19.28125 -34.601562 C 20.402344 -35.160156 21.640625 -35.441406 22.988281 -35.441406 C 24.964844 -35.441406 26.597656 -34.753906 27.894531 -33.378906 C 28.941406 -32.269531 29.589844 -30.84375 29.839844 -29.09375 C 30.097656 -27.273438 30.152344 -25.253906 30.003906 -23.046875 C 29.890625 -21.40625 29.867188 -20.144531 29.9375 -19.269531 L 25.160156 -18.902344 L 29.90625 -19.5625 C 30.222656 -17.285156 30.59375 -15.851562 31.019531 -15.261719 C 31.074219 -15.1875 31.117188 -15.136719 31.148438 -15.105469 C 31.125 -15.125 31.085938 -15.152344 31.03125 -15.183594 C 30.800781 -15.320312 30.546875 -15.390625 30.269531 -15.390625 C 30.667969 -15.390625 31.253906 -15.675781 32.027344 -16.246094 C 33.46875 -17.308594 34.917969 -18.550781 36.378906 -19.972656 L 40.664062 -24.128906 C 41.507812 -24.941406 42.285156 -25.582031 43 -26.046875 C 44.25 -26.859375 45.5 -27.269531 46.746094 -27.269531 C 48.011719 -27.269531 49.191406 -26.992188 50.292969 -26.441406 C 51.488281 -25.84375 52.375 -24.9375 52.953125 -23.722656 C 53.371094 -22.847656 53.578125 -21.878906 53.578125 -20.816406 C 53.578125 -18.921875 52.664062 -16.945312 50.835938 -14.890625 C 49.691406 -13.601562 48.453125 -12.367188 47.125 -11.179688 C 46 -10.175781 45.214844 -9.449219 44.769531 -9.003906 L 44.722656 -8.957031 L 44.679688 -8.917969 C 42.699219 -7.035156 40.542969 -5.425781 38.210938 -4.085938 C 35.472656 -2.511719 32.695312 -1.722656 29.886719 -1.722656 C 26.46875 -1.722656 23.699219 -2.746094 21.582031 -4.789062 C 19.804688 -6.5 18.519531 -8.617188 17.722656 -11.132812 C 17.0625 -13.210938 16.632812 -15.382812 16.429688 -17.648438 C 16.246094 -19.703125 16.15625 -21.570312 16.15625 -23.246094 L 20.945312 -23.246094 L 23.601562 -19.257812 C 23.710938 -19.332031 23.800781 -19.398438 23.863281 -19.460938 C 23.851562 -19.453125 23.828125 -19.421875 23.789062 -19.375 C 23.613281 -19.164062 23.398438 -18.855469 23.148438 -18.457031 L 21.425781 -15.71875 C 20.933594 -14.890625 20.207031 -13.722656 19.253906 -12.203125 C 18.234375 -10.582031 17.105469 -8.96875 15.863281 -7.355469 C 14.53125 -5.628906 13.175781 -4.15625 11.804688 -2.933594 C 9.746094 -1.105469 7.601562 -0.191406 5.363281 -0.191406 C 3.730469 -0.191406 2.277344 -0.464844 1.003906 -1.007812 C -0.582031 -1.6875 -1.820312 -2.738281 -2.710938 -4.152344 C -3.902344 -6.046875 -4.53125 -8.261719 -4.597656 -10.796875 C -4.640625 -12.5 -4.660156 -14.09375 -4.660156 -15.582031 Z M 4.917969 -15.582031 C 4.917969 -14.175781 4.9375 -12.664062 4.980469 -11.042969 C 5 -10.257812 5.136719 -9.664062 5.394531 -9.257812 C 5.226562 -9.523438 5.019531 -9.710938 4.777344 -9.816406 C 4.84375 -9.785156 5.039062 -9.769531 5.363281 -9.769531 C 5.160156 -9.769531 5.007812 -9.746094 4.90625 -9.699219 C 5.03125 -9.757812 5.207031 -9.890625 5.4375 -10.09375 C 6.363281 -10.917969 7.3125 -11.953125 8.277344 -13.207031 C 9.332031 -14.574219 10.289062 -15.941406 11.144531 -17.300781 C 12.0625 -18.761719 12.785156 -19.933594 13.3125 -20.8125 L 15.039062 -23.5625 C 16.128906 -25.289062 17.210938 -26.511719 18.289062 -27.230469 L 25.734375 -32.195312 L 25.734375 -23.246094 C 25.734375 -21.855469 25.8125 -20.269531 25.972656 -18.496094 C 26.113281 -16.929688 26.40625 -15.441406 26.851562 -14.027344 C 27.160156 -13.054688 27.621094 -12.273438 28.230469 -11.6875 C 28.496094 -11.429688 29.046875 -11.304688 29.886719 -11.304688 C 30.992188 -11.304688 32.175781 -11.664062 33.4375 -12.390625 C 35.109375 -13.351562 36.65625 -14.507812 38.082031 -15.859375 L 41.382812 -12.390625 L 37.996094 -15.777344 C 38.570312 -16.351562 39.484375 -17.199219 40.746094 -18.324219 C 41.800781 -19.265625 42.777344 -20.242188 43.675781 -21.253906 C 43.957031 -21.570312 44.136719 -21.800781 44.222656 -21.957031 C 44.074219 -21.6875 44 -21.308594 44 -20.816406 C 44 -20.4375 44.101562 -20.03125 44.304688 -19.605469 C 44.671875 -18.835938 45.238281 -18.261719 46.007812 -17.875 C 46.257812 -17.75 46.503906 -17.6875 46.746094 -17.6875 C 47.203125 -17.6875 47.621094 -17.761719 47.996094 -17.910156 C 48.105469 -17.953125 48.183594 -17.992188 48.226562 -18.019531 C 48.023438 -17.886719 47.726562 -17.632812 47.335938 -17.253906 L 43.0625 -13.109375 C 41.289062 -11.378906 39.503906 -9.855469 37.707031 -8.53125 C 35.246094 -6.71875 32.765625 -5.8125 30.269531 -5.8125 C 27.445312 -5.8125 25.109375 -7.089844 23.261719 -9.644531 C 21.898438 -11.523438 20.953125 -14.390625 20.417969 -18.242188 L 20.394531 -18.390625 L 20.386719 -18.535156 C 20.28125 -19.871094 20.300781 -21.59375 20.445312 -23.699219 C 20.550781 -25.234375 20.519531 -26.582031 20.355469 -27.738281 L 20.355469 -27.75 C 20.367188 -27.699219 20.386719 -27.644531 20.414062 -27.582031 C 20.523438 -27.3125 20.695312 -27.054688 20.925781 -26.808594 C 21.519531 -26.179688 22.207031 -25.863281 22.988281 -25.863281 C 23.148438 -25.863281 23.339844 -25.917969 23.566406 -26.035156 C 23.878906 -26.1875 24.121094 -26.394531 24.292969 -26.65625 C 23.667969 -25.71875 22.933594 -24.660156 22.09375 -23.484375 L 14.398438 -12.195312 C 13.75 -11.273438 13.019531 -10.292969 12.203125 -9.246094 C 10.84375 -7.507812 9.195312 -6.316406 7.261719 -5.671875 L 2.308594 -4.023438 L 1.089844 -9.101562 C 0.410156 -11.9375 0.421875 -14.988281 1.128906 -18.257812 C 1.738281 -21.058594 2.53125 -23.722656 3.519531 -26.257812 C 4.464844 -28.695312 5.355469 -30.746094 6.1875 -32.410156 C 6.558594 -33.148438 6.828125 -33.703125 7.007812 -34.074219 C 7.078125 -34.222656 7.125 -34.328125 7.148438 -34.382812 C 6.9375 -33.890625 6.832031 -33.332031 6.832031 -32.695312 C 6.832031 -32.742188 6.832031 -32.773438 6.832031 -32.792969 C 6.832031 -32.753906 6.839844 -32.703125 6.851562 -32.644531 C 6.945312 -32.066406 7.195312 -31.507812 7.597656 -30.972656 C 7.035156 -31.722656 6.640625 -32.664062 6.414062 -33.800781 L 11.113281 -34.738281 L 8.785156 -30.550781 C 8.734375 -30.582031 8.699219 -30.597656 8.679688 -30.605469 C 8.714844 -30.59375 8.761719 -30.589844 8.8125 -30.589844 C 9.160156 -30.589844 9.453125 -30.65625 9.703125 -30.789062 C 9.722656 -30.800781 9.742188 -30.8125 9.753906 -30.820312 C 9.753906 -30.820312 9.746094 -30.816406 9.738281 -30.808594 C 9.679688 -30.761719 9.613281 -30.695312 9.535156 -30.609375 L 6.003906 -33.84375 L 9.835938 -30.972656 C 9.054688 -29.933594 8.296875 -28.515625 7.558594 -26.722656 C 6.757812 -24.777344 6.109375 -22.777344 5.613281 -20.71875 C 5.148438 -18.789062 4.917969 -17.074219 4.917969 -15.582031 Z M 4.917969 -15.582031 "/></g></g></g><g fill="#fffef9" fill-opacity="1"><g transform="translate(130.916124, 124.130765)"><g><path d="M -4.789062 -9.707031 C -4.789062 -15.914062 -4.640625 -22.121094 -4.335938 -28.332031 C -4.035156 -34.527344 -3.625 -40.507812 -3.109375 -46.277344 L -3.097656 -46.402344 L -3.082031 -46.527344 C -3.003906 -47.082031 -2.835938 -48.445312 -2.585938 -50.613281 C -2.324219 -52.875 -1.980469 -55.496094 -1.546875 -58.480469 C -1.105469 -61.519531 -0.578125 -64.496094 0.0390625 -67.40625 C 0.695312 -70.5 1.460938 -73.113281 2.335938 -75.25 C 3.914062 -79.109375 6.199219 -81.039062 9.195312 -81.039062 C 10.742188 -81.039062 12.074219 -80.78125 13.195312 -80.269531 C 15.027344 -79.433594 16.207031 -78.085938 16.738281 -76.222656 C 17.242188 -74.464844 17.160156 -72.382812 16.492188 -69.984375 C 16.109375 -68.605469 15.761719 -67.011719 15.445312 -65.210938 C 14.355469 -58.984375 13.363281 -52.253906 12.480469 -45.015625 C 11.597656 -37.78125 10.925781 -30.59375 10.464844 -23.445312 C 10 -16.3125 9.769531 -9.773438 9.769531 -3.832031 L 4.980469 -3.832031 L 1.59375 -7.21875 C 1.382812 -7.003906 1.222656 -6.816406 1.117188 -6.644531 C 1.15625 -6.710938 1.222656 -6.824219 1.308594 -6.980469 C 1.539062 -7.386719 1.851562 -7.984375 2.25 -8.761719 L 5.511719 -15.09375 C 6.847656 -17.671875 8.285156 -20.402344 9.828125 -23.277344 C 11.402344 -26.207031 12.980469 -28.964844 14.558594 -31.550781 C 16.1875 -34.222656 17.679688 -36.417969 19.027344 -38.140625 C 19.859375 -39.203125 20.652344 -40.042969 21.398438 -40.660156 C 22.761719 -41.777344 24.1875 -42.339844 25.671875 -42.339844 C 27.414062 -42.339844 28.847656 -42.035156 29.96875 -41.429688 C 31.117188 -40.8125 31.953125 -39.933594 32.476562 -38.796875 C 33.015625 -37.628906 33.128906 -36.394531 32.820312 -35.097656 C 32.449219 -33.53125 31.453125 -31.707031 29.835938 -29.628906 C 28.761719 -28.246094 27.636719 -26.574219 26.457031 -24.613281 L 26.398438 -24.515625 L 26.335938 -24.417969 C 26.015625 -23.9375 25.714844 -23.476562 25.433594 -23.035156 C 25.117188 -22.539062 24.78125 -22.019531 24.421875 -21.480469 L 20.433594 -24.140625 L 24.542969 -21.675781 C 23.941406 -20.671875 23.566406 -19.964844 23.417969 -19.542969 C 23.367188 -19.398438 23.351562 -19.097656 23.367188 -18.648438 C 23.40625 -17.683594 23.550781 -16.015625 23.792969 -13.648438 C 23.953125 -11.996094 24.289062 -9.867188 24.8125 -7.261719 C 25.34375 -4.609375 25.976562 -1.953125 26.710938 0.703125 C 27.449219 3.367188 28.097656 5.5 28.660156 7.101562 L 24.140625 8.683594 L 28.554688 6.828125 C 29.117188 8.164062 29.570312 9.089844 29.914062 9.605469 C 30.773438 10.894531 31.351562 12.277344 31.644531 13.75 L 32.148438 16.261719 L 30.335938 18.074219 C 30.0625 18.347656 29.785156 18.640625 29.507812 18.957031 C 28.214844 20.410156 26.59375 21.136719 24.648438 21.136719 C 23.960938 21.136719 23.117188 20.96875 22.113281 20.636719 L 21.789062 20.527344 L 21.484375 20.375 C 19.59375 19.429688 18.046875 17.894531 16.84375 15.773438 C 15.957031 14.210938 15.234375 12.554688 14.664062 10.796875 C 14.199219 9.363281 13.800781 8.144531 13.464844 7.132812 C 12.464844 4.140625 11.648438 1.078125 11.015625 -2.050781 C 10.429688 -4.9375 9.800781 -7.804688 9.132812 -10.652344 L 13.792969 -11.75 L 18.148438 -9.753906 L 12.527344 2.507812 L 8.175781 0.511719 L 12.738281 1.964844 C 12.179688 3.71875 11.679688 5.535156 11.242188 7.414062 C 10.714844 9.65625 10.128906 11.578125 9.480469 13.167969 C 8.953125 14.472656 8.269531 15.53125 7.4375 16.339844 C 6.15625 17.578125 4.65625 18.199219 2.9375 18.199219 C 1.53125 18.199219 0.28125 17.886719 -0.808594 17.257812 C -2.164062 16.476562 -3.113281 15.34375 -3.664062 13.851562 C -4.179688 12.453125 -4.40625 10.84375 -4.339844 9.023438 C -4.304688 8.023438 -4.320312 7.105469 -4.390625 6.273438 C -4.460938 5.480469 -4.53125 4.886719 -4.597656 4.492188 C -4.726562 3.71875 -4.789062 2.605469 -4.789062 1.148438 Z M 4.789062 -9.707031 L 4.789062 1.148438 C 4.789062 2.078125 4.808594 2.667969 4.851562 2.917969 C 4.957031 3.542969 5.058594 4.398438 5.15625 5.476562 C 5.257812 6.6875 5.28125 7.984375 5.234375 9.367188 C 5.214844 9.929688 5.242188 10.320312 5.324219 10.542969 C 5.074219 9.859375 4.621094 9.332031 3.96875 8.957031 C 3.582031 8.734375 3.238281 8.621094 2.9375 8.621094 C 2.070312 8.621094 1.347656 8.902344 0.769531 9.460938 C 0.65625 9.570312 0.574219 9.667969 0.519531 9.753906 C 0.539062 9.722656 0.570312 9.660156 0.609375 9.5625 C 1.066406 8.433594 1.503906 6.988281 1.914062 5.230469 C 2.410156 3.109375 2.976562 1.050781 3.609375 -0.941406 L 3.699219 -1.21875 L 15.257812 -26.441406 L 18.457031 -12.847656 C 19.148438 -9.902344 19.796875 -6.941406 20.402344 -3.953125 C 20.960938 -1.207031 21.675781 1.480469 22.550781 4.105469 C 22.898438 5.140625 23.304688 6.386719 23.777344 7.847656 C 24.148438 8.988281 24.613281 10.054688 25.175781 11.050781 C 25.421875 11.480469 25.617188 11.734375 25.769531 11.808594 L 23.628906 16.09375 L 25.144531 11.546875 C 25.28125 11.59375 25.375 11.625 25.429688 11.636719 C 25.21875 11.585938 24.957031 11.558594 24.648438 11.558594 C 23.726562 11.558594 22.960938 11.902344 22.347656 12.589844 C 22.75 12.136719 23.15625 11.707031 23.5625 11.300781 L 26.949219 14.6875 L 22.253906 15.628906 C 22.207031 15.394531 22.101562 15.160156 21.941406 14.917969 C 21.261719 13.898438 20.523438 12.441406 19.722656 10.542969 L 19.667969 10.40625 L 19.617188 10.265625 C 18.988281 8.464844 18.273438 6.128906 17.480469 3.257812 C 16.683594 0.378906 15.996094 -2.5 15.417969 -5.382812 C 14.832031 -8.308594 14.449219 -10.738281 14.265625 -12.664062 C 14 -15.230469 13.84375 -17.097656 13.796875 -18.265625 C 13.730469 -19.941406 13.925781 -21.429688 14.386719 -22.730469 C 14.75 -23.757812 15.394531 -25.050781 16.328125 -26.601562 L 16.386719 -26.699219 L 16.449219 -26.796875 C 16.773438 -27.277344 17.074219 -27.738281 17.351562 -28.179688 C 17.667969 -28.675781 18.007812 -29.195312 18.367188 -29.734375 L 22.351562 -27.078125 L 18.242188 -29.539062 C 19.621094 -31.835938 20.964844 -33.824219 22.273438 -35.507812 C 22.734375 -36.101562 23.089844 -36.609375 23.332031 -37.027344 C 23.414062 -37.171875 23.476562 -37.292969 23.515625 -37.386719 C 23.523438 -37.402344 23.527344 -37.414062 23.53125 -37.417969 C 23.523438 -37.390625 23.511719 -37.359375 23.503906 -37.316406 C 23.300781 -36.46875 23.390625 -35.625 23.773438 -34.792969 C 24.144531 -33.988281 24.695312 -33.390625 25.429688 -32.996094 C 25.6875 -32.855469 25.914062 -32.769531 26.097656 -32.738281 C 26.019531 -32.753906 25.878906 -32.757812 25.671875 -32.757812 C 26.230469 -32.757812 26.734375 -32.867188 27.183594 -33.085938 C 27.324219 -33.152344 27.425781 -33.210938 27.484375 -33.257812 C 27.273438 -33.085938 26.96875 -32.746094 26.566406 -32.230469 C 25.449219 -30.804688 24.171875 -28.914062 22.734375 -26.5625 C 21.25 -24.125 19.757812 -21.519531 18.269531 -18.742188 C 16.746094 -15.914062 15.335938 -13.234375 14.027344 -10.707031 L 10.777344 -4.390625 C 9.695312 -2.285156 8.894531 -0.96875 8.367188 -0.445312 L 0.191406 7.730469 L 0.191406 -3.832031 C 0.191406 -9.980469 0.429688 -16.722656 0.902344 -24.066406 C 1.378906 -31.394531 2.066406 -38.761719 2.972656 -46.175781 C 3.875 -53.582031 4.890625 -60.472656 6.007812 -66.851562 C 6.378906 -68.964844 6.796875 -70.863281 7.261719 -72.550781 C 7.390625 -73.003906 7.464844 -73.375 7.484375 -73.660156 C 7.488281 -73.726562 7.488281 -73.769531 7.488281 -73.789062 C 7.492188 -73.738281 7.503906 -73.671875 7.527344 -73.589844 C 7.804688 -72.621094 8.367188 -71.945312 9.21875 -71.554688 C 9.359375 -71.492188 9.46875 -71.453125 9.550781 -71.441406 C 9.476562 -71.453125 9.355469 -71.457031 9.195312 -71.457031 C 9.820312 -71.457031 10.394531 -71.605469 10.917969 -71.902344 C 11.195312 -72.058594 11.414062 -72.226562 11.574219 -72.414062 C 11.511719 -72.34375 11.386719 -72.078125 11.203125 -71.625 C 10.542969 -70.015625 9.949219 -67.949219 9.410156 -65.421875 C 8.835938 -62.710938 8.34375 -59.941406 7.933594 -57.105469 C 7.515625 -54.214844 7.179688 -51.683594 6.929688 -49.515625 C 6.667969 -47.261719 6.492188 -45.8125 6.402344 -45.171875 L 1.660156 -45.851562 L 6.429688 -45.425781 C 5.925781 -39.785156 5.527344 -33.929688 5.230469 -27.867188 C 4.9375 -21.8125 4.789062 -15.757812 4.789062 -9.707031 Z M 4.789062 -9.707031 "/></g></g></g><g fill="#fffef9" fill-opacity="1"><g transform="translate(159.905928, 124.130765)"><g><path d="M 3.574219 -1.851562 C 1.503906 -1.851562 -0.253906 -2.527344 -1.699219 -3.882812 C -2.917969 -5.027344 -3.753906 -6.554688 -4.210938 -8.464844 C -4.8125 -10.972656 -4.90625 -13.976562 -4.503906 -17.472656 C -4.128906 -20.699219 -3.453125 -23.917969 -2.476562 -27.128906 C -1.476562 -30.402344 -0.339844 -33.171875 0.9375 -35.4375 C 2.960938 -39.015625 5.375 -40.804688 8.175781 -40.804688 C 10.191406 -40.804688 11.832031 -40.191406 13.101562 -38.960938 C 14.503906 -37.605469 15.136719 -35.859375 14.996094 -33.730469 C 14.882812 -31.96875 14.371094 -29.792969 13.457031 -27.207031 C 12.71875 -25.113281 11.976562 -22.808594 11.234375 -20.292969 C 10.597656 -18.136719 10.28125 -16.058594 10.28125 -14.050781 L 5.492188 -14.050781 L 1.488281 -16.679688 L 7.621094 -26.003906 L 11.621094 -23.371094 L 7.339844 -25.515625 C 7.683594 -26.203125 8.335938 -27.269531 9.296875 -28.710938 C 10.308594 -30.226562 11.441406 -31.636719 12.703125 -32.949219 C 14.710938 -35.039062 16.90625 -36.082031 19.285156 -36.082031 C 20.960938 -36.082031 22.449219 -35.535156 23.742188 -34.445312 C 24.71875 -33.625 25.503906 -32.53125 26.101562 -31.167969 L 26.394531 -30.492188 L 27.269531 -22.351562 L 27.269531 -22.09375 C 27.269531 -21.414062 27.308594 -20.304688 27.390625 -18.769531 C 27.464844 -17.351562 27.632812 -15.910156 27.894531 -14.449219 C 28.097656 -13.328125 28.398438 -12.414062 28.808594 -11.699219 C 28.757812 -11.789062 28.632812 -11.898438 28.433594 -12.023438 C 28.117188 -12.222656 27.792969 -12.324219 27.460938 -12.324219 C 27.25 -12.324219 27.113281 -12.304688 27.046875 -12.269531 C 27.285156 -12.40625 27.585938 -12.671875 27.953125 -13.070312 C 29.183594 -14.417969 30.390625 -15.984375 31.570312 -17.773438 C 32.914062 -19.804688 34.125 -21.601562 35.210938 -23.167969 C 35.945312 -24.222656 36.644531 -25.058594 37.316406 -25.679688 C 38.652344 -26.910156 40.089844 -27.523438 41.636719 -27.523438 C 43.417969 -27.523438 44.898438 -27.039062 46.082031 -26.066406 C 46.925781 -25.375 47.527344 -24.511719 47.882812 -23.480469 C 48.171875 -22.652344 48.277344 -21.777344 48.195312 -20.851562 C 48.046875 -19.136719 47.398438 -17.324219 46.253906 -15.417969 C 45.414062 -14.015625 44.546875 -12.703125 43.652344 -11.480469 C 42.882812 -10.425781 42.433594 -9.800781 42.300781 -9.605469 L 42.203125 -9.457031 L 42.097656 -9.320312 C 41.453125 -8.496094 40.597656 -7.457031 39.527344 -6.207031 C 38.382812 -4.871094 37.1875 -3.632812 35.945312 -2.484375 C 34.238281 -0.90625 32.476562 0.105469 30.664062 0.558594 L 29.503906 -4.085938 L 30.878906 0.5 C 29.578125 0.890625 28.3125 1.085938 27.078125 1.085938 C 23.578125 1.085938 20.773438 -0.242188 18.664062 -2.898438 C 17.179688 -4.765625 16.050781 -6.808594 15.277344 -9.019531 C 14.265625 -12.042969 13.710938 -14.78125 13.605469 -17.230469 C 13.515625 -19.394531 13.515625 -21.261719 13.609375 -22.832031 C 13.632812 -23.1875 13.628906 -23.46875 13.597656 -23.667969 L 13.59375 -23.695312 C 13.613281 -23.628906 13.648438 -23.554688 13.695312 -23.472656 L 17.878906 -25.800781 L 20.539062 -21.8125 C 20.152344 -21.558594 19.574219 -20.742188 18.796875 -19.363281 C 17.671875 -17.359375 16.5 -15.203125 15.285156 -12.902344 C 13.933594 -10.339844 12.570312 -8.132812 11.1875 -6.273438 C 8.996094 -3.324219 6.457031 -1.851562 3.574219 -1.851562 Z M 3.574219 -11.429688 C 3.253906 -11.429688 3.007812 -11.375 2.835938 -11.257812 C 2.996094 -11.367188 3.21875 -11.609375 3.5 -11.988281 C 4.585938 -13.453125 5.691406 -15.246094 6.8125 -17.367188 C 8.066406 -19.75 9.277344 -21.980469 10.449219 -24.058594 C 11.972656 -26.769531 13.566406 -28.679688 15.222656 -29.785156 L 19.546875 -32.664062 L 22.066406 -28.125 C 22.945312 -26.542969 23.3125 -24.585938 23.171875 -22.253906 C 23.097656 -21.011719 23.097656 -19.472656 23.175781 -17.636719 C 23.242188 -16.085938 23.621094 -14.265625 24.316406 -12.183594 C 24.734375 -10.988281 25.351562 -9.878906 26.164062 -8.855469 C 26.355469 -8.613281 26.660156 -8.492188 27.078125 -8.492188 C 27.375 -8.492188 27.722656 -8.554688 28.125 -8.675781 L 28.234375 -8.707031 L 28.339844 -8.734375 C 28.570312 -8.792969 28.941406 -9.054688 29.449219 -9.523438 C 30.417969 -10.417969 31.351562 -11.390625 32.253906 -12.441406 C 33.226562 -13.574219 33.984375 -14.496094 34.535156 -15.203125 L 38.316406 -12.261719 L 34.332031 -14.917969 C 34.539062 -15.230469 35.066406 -15.96875 35.917969 -17.128906 C 36.640625 -18.121094 37.347656 -19.191406 38.039062 -20.34375 C 38.425781 -20.988281 38.632812 -21.433594 38.652344 -21.679688 C 38.613281 -21.246094 38.675781 -20.796875 38.835938 -20.335938 C 39.066406 -19.667969 39.457031 -19.113281 40 -18.664062 C 40.394531 -18.34375 40.8125 -18.125 41.253906 -18.007812 C 41.417969 -17.964844 41.546875 -17.945312 41.636719 -17.945312 C 42.289062 -17.945312 42.882812 -18.085938 43.414062 -18.371094 C 43.589844 -18.46875 43.726562 -18.554688 43.816406 -18.640625 C 43.65625 -18.492188 43.414062 -18.183594 43.078125 -17.703125 C 42.039062 -16.203125 40.867188 -14.464844 39.566406 -12.496094 C 38.109375 -10.285156 36.589844 -8.316406 35.011719 -6.597656 C 32.660156 -4.03125 30.140625 -2.746094 27.460938 -2.746094 C 25.933594 -2.746094 24.542969 -3.144531 23.292969 -3.941406 C 22.15625 -4.664062 21.222656 -5.664062 20.492188 -6.945312 C 19.535156 -8.617188 18.863281 -10.554688 18.464844 -12.757812 C 18.132812 -14.613281 17.917969 -16.449219 17.824219 -18.265625 C 17.734375 -19.96875 17.6875 -21.246094 17.6875 -22.09375 L 22.480469 -22.09375 L 17.714844 -21.585938 L 16.949219 -28.738281 L 21.710938 -29.246094 L 17.324219 -27.328125 C 17.304688 -27.371094 17.289062 -27.40625 17.273438 -27.4375 L 17.277344 -27.429688 C 17.347656 -27.328125 17.445312 -27.222656 17.574219 -27.117188 C 18.058594 -26.707031 18.632812 -26.5 19.285156 -26.5 C 19.570312 -26.5 19.800781 -26.550781 19.980469 -26.644531 C 19.910156 -26.609375 19.789062 -26.496094 19.609375 -26.3125 C 18.742188 -25.410156 17.960938 -24.4375 17.269531 -23.398438 C 16.527344 -22.285156 16.074219 -21.5625 15.90625 -21.230469 L 15.78125 -20.976562 L 0.703125 1.953125 L 0.703125 -14.050781 C 0.703125 -16.980469 1.152344 -19.964844 2.046875 -23.003906 C 2.835938 -25.679688 3.628906 -28.144531 4.421875 -30.394531 C 5.042969 -32.148438 5.382812 -33.464844 5.4375 -34.34375 C 5.421875 -34.101562 5.460938 -33.828125 5.550781 -33.523438 C 5.714844 -32.976562 6.011719 -32.496094 6.4375 -32.082031 C 6.816406 -31.714844 7.234375 -31.460938 7.699219 -31.316406 C 7.894531 -31.257812 8.050781 -31.226562 8.175781 -31.226562 C 8.695312 -31.226562 9.167969 -31.335938 9.597656 -31.550781 C 9.785156 -31.644531 9.925781 -31.734375 10.019531 -31.824219 C 9.847656 -31.660156 9.601562 -31.292969 9.277344 -30.722656 C 8.34375 -29.070312 7.480469 -26.941406 6.691406 -24.339844 C 5.878906 -21.679688 5.320312 -19.023438 5.011719 -16.371094 C 4.738281 -13.996094 4.769531 -12.101562 5.105469 -10.691406 C 5.132812 -10.578125 5.152344 -10.507812 5.164062 -10.484375 C 5.101562 -10.609375 5 -10.734375 4.859375 -10.867188 C 4.457031 -11.242188 4.03125 -11.429688 3.574219 -11.429688 Z M 3.574219 -11.429688 "/></g></g></g><g fill="#fffef9" fill-opacity="1"><g transform="translate(198.218428, 124.130765)"><g><path d="M 3.644531 -27.355469 C 5.027344 -28.082031 6.59375 -29.113281 8.339844 -30.441406 C 9.167969 -31.070312 9.605469 -31.699219 9.660156 -32.328125 L 14.433594 -31.929688 L 15.160156 -27.195312 C 14.925781 -27.160156 14.527344 -26.910156 13.972656 -26.453125 C 13.070312 -25.707031 12.296875 -24.871094 11.652344 -23.945312 C 11.046875 -23.082031 10.644531 -22.335938 10.453125 -21.707031 L 5.875 -23.117188 Z M 8.105469 -18.878906 L -2.089844 -13.511719 L 1.296875 -24.527344 C 1.785156 -26.113281 2.621094 -27.75 3.804688 -29.441406 C 4.945312 -31.070312 6.300781 -32.535156 7.867188 -33.832031 C 9.78125 -35.414062 11.726562 -36.359375 13.703125 -36.664062 L 19.710938 -37.585938 L 19.207031 -31.53125 C 18.917969 -28.074219 17.226562 -25.167969 14.140625 -22.816406 C 11.96875 -21.167969 9.957031 -19.855469 8.105469 -18.878906 Z M -4.660156 -20.050781 C -4.660156 -23.023438 -3.75 -26.113281 -1.929688 -29.316406 C -0.238281 -32.285156 1.871094 -34.828125 4.398438 -36.945312 C 7.375 -39.433594 10.460938 -40.679688 13.664062 -40.679688 C 16.105469 -40.679688 18.113281 -40.109375 19.683594 -38.96875 C 21.644531 -37.550781 22.699219 -35.554688 22.851562 -32.984375 C 23.054688 -29.636719 21.796875 -26.25 19.078125 -22.824219 L 18.96875 -22.683594 L 18.847656 -22.550781 C 17.597656 -21.199219 15.8125 -19.699219 13.496094 -18.058594 C 10.746094 -16.109375 7.960938 -15.015625 5.140625 -14.769531 L 4.726562 -19.539062 L 9.515625 -19.539062 C 9.515625 -18.304688 9.550781 -17.21875 9.628906 -16.28125 C 9.617188 -16.433594 9.59375 -16.535156 9.5625 -16.59375 C 9.640625 -16.449219 9.796875 -16.261719 10.027344 -16.03125 C 10.199219 -15.859375 10.476562 -15.773438 10.855469 -15.773438 C 12.199219 -15.773438 13.6875 -16.253906 15.320312 -17.21875 C 17.566406 -18.542969 19.265625 -19.625 20.414062 -20.464844 L 23.246094 -16.601562 L 20.179688 -20.28125 C 20.671875 -20.695312 21.058594 -21.019531 21.339844 -21.261719 C 21.679688 -21.550781 22.082031 -21.886719 22.550781 -22.257812 L 22.597656 -22.292969 L 22.640625 -22.328125 C 24.0625 -23.410156 24.871094 -24.085938 25.066406 -24.351562 C 25.898438 -25.484375 26.742188 -26.320312 27.601562 -26.859375 C 28.71875 -27.558594 30.375 -27.90625 32.566406 -27.90625 L 36.566406 -27.90625 L 37.28125 -23.972656 C 37.539062 -22.554688 37.617188 -21.433594 37.511719 -20.605469 C 37.347656 -19.296875 36.648438 -17.933594 35.40625 -16.515625 L 35.300781 -16.394531 L 35.1875 -16.28125 C 33.554688 -14.648438 31.515625 -12.808594 29.0625 -10.757812 C 26.472656 -8.59375 23.695312 -6.710938 20.730469 -5.109375 C 17.339844 -3.277344 13.917969 -2.363281 10.472656 -2.363281 C 8.523438 -2.363281 6.660156 -2.699219 4.878906 -3.375 C 3.003906 -4.085938 1.269531 -5.238281 -0.320312 -6.832031 C -2.621094 -9.128906 -3.949219 -11.625 -4.300781 -14.316406 C -4.542969 -16.144531 -4.660156 -18.054688 -4.660156 -20.050781 Z M 4.917969 -20.050781 C 4.917969 -18.472656 5.011719 -16.976562 5.195312 -15.566406 C 5.265625 -15.023438 5.6875 -14.371094 6.453125 -13.605469 C 7.074219 -12.980469 7.683594 -12.558594 8.277344 -12.332031 C 8.964844 -12.074219 9.695312 -11.941406 10.472656 -11.941406 C 12.304688 -11.941406 14.207031 -12.472656 16.179688 -13.539062 C 18.578125 -14.832031 20.824219 -16.355469 22.917969 -18.105469 C 25.152344 -19.972656 26.984375 -21.625 28.414062 -23.054688 L 31.800781 -19.667969 L 28.199219 -22.824219 C 28.328125 -22.96875 28.402344 -23.0625 28.425781 -23.101562 C 28.214844 -22.757812 28.074219 -22.324219 28.007812 -21.796875 C 27.988281 -21.648438 27.980469 -21.519531 27.984375 -21.410156 L 27.984375 -21.394531 C 27.984375 -21.410156 27.980469 -21.433594 27.976562 -21.460938 C 27.957031 -21.652344 27.917969 -21.917969 27.855469 -22.261719 L 32.566406 -23.117188 L 32.566406 -18.328125 C 32.140625 -18.328125 31.824219 -18.316406 31.628906 -18.289062 C 31.910156 -18.324219 32.261719 -18.476562 32.679688 -18.734375 C 32.851562 -18.84375 32.980469 -18.9375 33.054688 -19.019531 C 32.992188 -18.953125 32.90625 -18.84375 32.789062 -18.6875 C 32.050781 -17.675781 30.601562 -16.351562 28.445312 -14.710938 L 25.542969 -18.519531 L 28.535156 -14.777344 C 28.152344 -14.472656 27.832031 -14.207031 27.574219 -13.988281 C 27.261719 -13.71875 26.839844 -13.363281 26.3125 -12.925781 L 26.195312 -12.828125 L 26.078125 -12.742188 C 24.671875 -11.710938 22.707031 -10.449219 20.183594 -8.964844 C 17.050781 -7.117188 13.941406 -6.195312 10.855469 -6.195312 C 7.832031 -6.195312 5.296875 -7.214844 3.253906 -9.257812 C 1.316406 -11.195312 0.257812 -13.28125 0.078125 -15.519531 C -0.015625 -16.710938 -0.0625 -18.050781 -0.0625 -19.539062 L -0.0625 -23.933594 L 4.3125 -24.3125 C 5.40625 -24.40625 6.621094 -24.929688 7.960938 -25.875 C 9.730469 -27.128906 11.011719 -28.1875 11.808594 -29.046875 L 15.328125 -25.800781 L 11.574219 -28.777344 C 12.773438 -30.289062 13.347656 -31.5 13.292969 -32.410156 C 13.296875 -32.289062 13.347656 -32.136719 13.441406 -31.949219 C 13.589844 -31.652344 13.796875 -31.40625 14.0625 -31.210938 C 14.199219 -31.113281 14.300781 -31.058594 14.367188 -31.042969 C 14.210938 -31.082031 13.976562 -31.097656 13.664062 -31.097656 C 12.78125 -31.097656 11.742188 -30.597656 10.546875 -29.597656 C 8.902344 -28.222656 7.519531 -26.550781 6.398438 -24.582031 C 5.410156 -22.84375 4.917969 -21.335938 4.917969 -20.050781 Z M 4.917969 -20.050781 "/></g></g></g><g fill="#fffef9" fill-opacity="1"><g transform="translate(225.931148, 124.130765)"><g><path d="M 1.789062 4.277344 C 0 4.277344 -1.492188 3.65625 -2.6875 2.40625 C -3.636719 1.421875 -4.230469 0.167969 -4.472656 -1.351562 C -4.703125 -2.777344 -4.761719 -4.273438 -4.648438 -5.832031 C -4.574219 -6.910156 -4.535156 -7.523438 -4.535156 -7.664062 L 0.253906 -7.664062 L -4.527344 -7.398438 C -4.621094 -9.0625 -4.640625 -10.746094 -4.597656 -12.453125 C -4.558594 -13.902344 -4.578125 -15.371094 -4.65625 -16.863281 L -4.660156 -16.988281 L -4.660156 -17.113281 C -4.660156 -17.75 -4.640625 -18.921875 -4.597656 -20.621094 C -4.550781 -22.421875 -4.414062 -24.328125 -4.183594 -26.339844 C -3.9375 -28.515625 -3.554688 -30.429688 -3.039062 -32.082031 C -2.644531 -33.347656 -2.113281 -34.390625 -1.449219 -35.207031 C -0.214844 -36.726562 1.332031 -37.484375 3.191406 -37.484375 C 4.972656 -37.484375 6.46875 -37.097656 7.691406 -36.324219 C 8.597656 -35.75 9.308594 -35 9.816406 -34.074219 C 10.296875 -33.203125 10.558594 -32.253906 10.597656 -31.21875 C 10.648438 -29.898438 10.578125 -28.238281 10.386719 -26.238281 L 10.378906 -26.128906 L 10.359375 -26.015625 C 10.308594 -25.644531 10.28125 -25.210938 10.28125 -24.714844 L 10.28125 -22.605469 C 10.28125 -21.238281 10.15625 -20.179688 9.90625 -19.429688 C 9.988281 -19.675781 10.035156 -19.855469 10.042969 -19.972656 C 10.03125 -19.816406 10.027344 -19.589844 10.027344 -19.285156 L 5.238281 -19.285156 L 2.417969 -23.160156 C 3.054688 -23.621094 3.632812 -24.15625 4.15625 -24.765625 C 5.875 -26.773438 8.449219 -27.777344 11.878906 -27.777344 C 12.40625 -27.777344 13.121094 -27.800781 14.03125 -27.839844 C 15.082031 -27.882812 16.195312 -27.90625 17.371094 -27.90625 C 19.453125 -27.90625 21.40625 -27.785156 23.230469 -27.546875 C 24.765625 -27.34375 26.042969 -26.910156 27.058594 -26.242188 C 27.886719 -25.695312 28.539062 -25.015625 29.015625 -24.199219 C 29.554688 -23.277344 29.824219 -22.277344 29.824219 -21.203125 C 29.824219 -19.648438 29.355469 -18.292969 28.421875 -17.136719 C 27.566406 -16.074219 26.425781 -15.339844 25.007812 -14.9375 C 23.683594 -14.558594 22.160156 -14.367188 20.433594 -14.367188 C 19.507812 -14.367188 18.558594 -14.390625 17.589844 -14.4375 C 16.769531 -14.476562 16.058594 -14.496094 15.453125 -14.496094 C 13.5625 -14.496094 12.445312 -14.441406 12.105469 -14.335938 C 12.390625 -14.425781 12.628906 -14.539062 12.828125 -14.679688 C 12.863281 -14.707031 12.890625 -14.726562 12.910156 -14.746094 C 12.902344 -14.738281 12.890625 -14.726562 12.871094 -14.707031 C 12.644531 -14.464844 12.363281 -14.0625 12.027344 -13.5 L 7.917969 -15.964844 L 12.136719 -13.695312 C 11.605469 -12.707031 11.089844 -11.636719 10.589844 -10.484375 C 10.191406 -9.566406 9.898438 -8.535156 9.707031 -7.386719 L 9.679688 -7.242188 L 9.648438 -7.097656 C 9.488281 -6.402344 9.421875 -5.667969 9.449219 -4.898438 C 9.511719 -3.078125 9.289062 -1.46875 8.773438 -0.0703125 C 8.179688 1.539062 7.097656 2.726562 5.53125 3.492188 C 4.453125 4.015625 3.207031 4.277344 1.789062 4.277344 Z M 1.789062 -5.300781 C 1.828125 -5.300781 1.859375 -5.300781 1.882812 -5.304688 C 1.875 -5.304688 1.863281 -5.300781 1.839844 -5.296875 C 1.6875 -5.269531 1.519531 -5.210938 1.335938 -5.121094 C 0.597656 -4.761719 0.078125 -4.179688 -0.214844 -3.378906 C -0.136719 -3.597656 -0.105469 -3.992188 -0.125 -4.554688 C -0.183594 -6.167969 -0.0351562 -7.734375 0.3125 -9.25 L 4.980469 -8.175781 L 0.257812 -8.960938 C 0.578125 -10.878906 1.089844 -12.65625 1.800781 -14.292969 C 2.40625 -15.695312 3.042969 -17.007812 3.703125 -18.234375 L 3.753906 -18.332031 L 3.8125 -18.429688 C 5.457031 -21.167969 7.257812 -22.851562 9.222656 -23.46875 C 10.5 -23.875 12.578125 -24.074219 15.453125 -24.074219 C 16.210938 -24.074219 17.074219 -24.050781 18.042969 -24.007812 C 18.863281 -23.96875 19.660156 -23.949219 20.433594 -23.949219 C 21.265625 -23.949219 21.910156 -24.015625 22.375 -24.144531 C 21.851562 -23.996094 21.382812 -23.667969 20.972656 -23.15625 C 20.484375 -22.554688 20.242188 -21.902344 20.242188 -21.203125 C 20.242188 -20.550781 20.410156 -19.9375 20.746094 -19.363281 C 21.023438 -18.890625 21.371094 -18.515625 21.792969 -18.238281 C 21.972656 -18.121094 22.128906 -18.039062 22.261719 -18 C 22.214844 -18.015625 22.121094 -18.03125 21.980469 -18.050781 C 20.570312 -18.234375 19.035156 -18.328125 17.371094 -18.328125 C 16.332031 -18.328125 15.359375 -18.308594 14.449219 -18.269531 C 13.398438 -18.222656 12.542969 -18.199219 11.878906 -18.199219 C 11.410156 -18.199219 11.078125 -18.167969 10.878906 -18.101562 C 11.046875 -18.15625 11.230469 -18.300781 11.425781 -18.53125 C 10.417969 -17.351562 9.292969 -16.3125 8.054688 -15.410156 L 0.445312 -9.878906 L 0.445312 -19.285156 C 0.445312 -20.65625 0.570312 -21.714844 0.820312 -22.460938 C 0.738281 -22.214844 0.691406 -22.035156 0.683594 -21.921875 C 0.695312 -22.074219 0.703125 -22.304688 0.703125 -22.605469 L 0.703125 -24.714844 C 0.703125 -25.664062 0.761719 -26.550781 0.878906 -27.371094 L 5.621094 -26.691406 L 0.851562 -27.148438 C 1 -28.722656 1.058594 -29.957031 1.023438 -30.851562 C 1.042969 -30.371094 1.179688 -29.90625 1.429688 -29.449219 C 1.710938 -28.941406 2.085938 -28.535156 2.558594 -28.234375 C 2.824219 -28.070312 3.074219 -27.960938 3.308594 -27.910156 C 3.332031 -27.902344 3.347656 -27.902344 3.351562 -27.902344 C 3.3125 -27.90625 3.257812 -27.90625 3.191406 -27.90625 C 3.84375 -27.90625 4.453125 -28.0625 5.019531 -28.375 C 5.410156 -28.589844 5.730469 -28.851562 5.984375 -29.164062 C 6.085938 -29.289062 6.15625 -29.390625 6.195312 -29.476562 C 6.171875 -29.429688 6.140625 -29.34375 6.105469 -29.222656 C 5.769531 -28.152344 5.511719 -26.828125 5.332031 -25.257812 C 5.136719 -23.523438 5.019531 -21.898438 4.980469 -20.375 C 4.9375 -18.757812 4.917969 -17.667969 4.917969 -17.113281 L 0.128906 -17.113281 L 4.910156 -17.367188 C 5.003906 -15.621094 5.027344 -13.898438 4.980469 -12.195312 C 4.941406 -10.753906 4.960938 -9.328125 5.039062 -7.929688 L 5.046875 -7.796875 L 5.046875 -7.664062 C 5.046875 -7.292969 5 -6.457031 4.90625 -5.152344 C 4.847656 -4.328125 4.871094 -3.5625 4.984375 -2.863281 C 4.914062 -3.316406 4.65625 -3.773438 4.222656 -4.226562 C 3.535156 -4.941406 2.722656 -5.300781 1.789062 -5.300781 Z M 1.789062 -5.300781 "/></g></g></g><g fill="#122620" fill-opacity="1"><g transform="translate(8.571542, 124.130765)"><g><path d="M 5.875 34.09375 C 7.75 34.09375 9.554688 33.285156 11.296875 31.671875 C 13.046875 30.054688 14.625 28.203125 16.03125 26.109375 C 17.4375 24.023438 18.476562 22.257812 19.15625 20.8125 C 21.625 15.875 23.238281 11.703125 24 8.296875 C 24.769531 4.890625 25.453125 2.675781 26.046875 1.65625 C 25.535156 1.738281 24.769531 2.1875 23.75 3 C 22.726562 3.8125 21.726562 4.640625 20.75 5.484375 C 19.769531 6.335938 19.066406 7.019531 18.640625 7.53125 C 17.191406 8.976562 15.53125 10.722656 13.65625 12.765625 C 11.789062 14.816406 10.003906 17.03125 8.296875 19.40625 C 6.597656 21.789062 5.300781 24.195312 4.40625 26.625 C 3.507812 29.050781 3.316406 31.414062 3.828125 33.71875 C 4.335938 33.800781 4.675781 33.882812 4.84375 33.96875 C 5.019531 34.050781 5.363281 34.09375 5.875 34.09375 Z M 68.203125 -27.328125 C 68.546875 -28.523438 68.800781 -29.847656 68.96875 -31.296875 C 69.132812 -32.742188 69.304688 -34.101562 69.484375 -35.375 C 69.992188 -39.039062 70.648438 -43.210938 71.453125 -47.890625 C 72.265625 -52.578125 73.140625 -57.257812 74.078125 -61.9375 C 75.015625 -66.625 75.863281 -70.796875 76.625 -74.453125 C 76.882812 -75.648438 77.179688 -77.207031 77.515625 -79.125 C 77.859375 -81.039062 78.15625 -83.101562 78.40625 -85.3125 C 78.664062 -87.53125 78.753906 -89.597656 78.671875 -91.515625 C 78.585938 -93.429688 78.207031 -94.941406 77.53125 -96.046875 C 75.738281 -95.960938 73.820312 -95.066406 71.78125 -93.359375 C 69.738281 -91.660156 67.671875 -89.507812 65.578125 -86.90625 C 63.492188 -84.3125 61.535156 -81.585938 59.703125 -78.734375 C 57.878906 -75.878906 56.242188 -73.21875 54.796875 -70.75 C 53.347656 -68.28125 52.28125 -66.320312 51.59375 -64.875 L 46.359375 -53.640625 C 45.171875 -51.003906 43.9375 -47.875 42.65625 -44.25 C 41.382812 -40.632812 40.191406 -36.992188 39.078125 -33.328125 C 37.972656 -29.671875 37.035156 -26.394531 36.265625 -23.5 C 36.097656 -22.5625 35.78125 -21.21875 35.3125 -19.46875 C 34.84375 -17.726562 34.394531 -16.003906 33.96875 -14.296875 C 33.539062 -12.597656 33.285156 -11.320312 33.203125 -10.46875 C 33.972656 -10.726562 34.71875 -11.113281 35.4375 -11.625 C 36.164062 -12.132812 36.867188 -12.601562 37.546875 -13.03125 L 50.0625 -19.921875 C 52.019531 -20.859375 54.191406 -21.878906 56.578125 -22.984375 C 58.960938 -24.097656 61.21875 -25.035156 63.34375 -25.796875 C 64.195312 -25.960938 65.070312 -26.175781 65.96875 -26.4375 C 66.863281 -26.695312 67.609375 -26.992188 68.203125 -27.328125 Z M 5.109375 38.4375 C 3.148438 38.4375 1.59375 37.691406 0.4375 36.203125 C -0.707031 34.710938 -1.28125 32.945312 -1.28125 30.90625 C -1.195312 28.09375 -0.347656 25.132812 1.265625 22.03125 C 2.890625 18.925781 4.914062 15.878906 7.34375 12.890625 C 9.769531 9.910156 12.28125 7.144531 14.875 4.59375 C 17.476562 2.039062 19.800781 -0.0820312 21.84375 -1.78125 C 23.625 -3.226562 24.941406 -4.25 25.796875 -4.84375 C 26.648438 -5.445312 27.242188 -6.023438 27.578125 -6.578125 C 27.921875 -7.128906 28.222656 -8.003906 28.484375 -9.203125 C 29.929688 -15.753906 31.65625 -22.582031 33.65625 -29.6875 C 35.65625 -36.800781 37.992188 -43.847656 40.671875 -50.828125 C 43.359375 -57.816406 46.425781 -64.503906 49.875 -70.890625 C 53.320312 -77.273438 57.132812 -83.019531 61.3125 -88.125 C 62.238281 -89.3125 63.578125 -90.863281 65.328125 -92.78125 C 67.078125 -94.695312 68.992188 -96.398438 71.078125 -97.890625 C 73.160156 -99.378906 75.179688 -100.125 77.140625 -100.125 C 79.359375 -100.125 80.847656 -99.398438 81.609375 -97.953125 C 82.378906 -96.503906 82.804688 -94.84375 82.890625 -92.96875 C 82.972656 -91.101562 83.015625 -89.488281 83.015625 -88.125 C 83.015625 -86.507812 82.78125 -84.0625 82.3125 -80.78125 C 81.84375 -77.5 81.265625 -73.816406 80.578125 -69.734375 C 79.898438 -65.648438 79.15625 -61.476562 78.34375 -57.21875 C 77.539062 -52.957031 76.816406 -49.015625 76.171875 -45.390625 C 75.535156 -41.773438 75.050781 -38.820312 74.71875 -36.53125 C 74.539062 -35.164062 74.347656 -33.925781 74.140625 -32.8125 C 73.929688 -31.707031 73.828125 -30.429688 73.828125 -28.984375 C 75.273438 -28.984375 76.570312 -29.113281 77.71875 -29.375 C 78.863281 -29.632812 80.25 -29.765625 81.875 -29.765625 C 83.488281 -29.765625 84.550781 -29.378906 85.0625 -28.609375 C 85.570312 -27.835938 85.65625 -27.046875 85.3125 -26.234375 C 84.976562 -25.429688 84.34375 -25.03125 83.40625 -25.03125 C 82.289062 -25.03125 81.835938 -25.132812 82.046875 -25.34375 C 82.265625 -25.5625 82.035156 -25.671875 81.359375 -25.671875 C 81.015625 -25.671875 80.375 -25.628906 79.4375 -25.546875 C 78.5 -25.460938 77.179688 -25.25 75.484375 -24.90625 C 74.285156 -24.644531 73.554688 -24.382812 73.296875 -24.125 C 73.046875 -23.875 72.835938 -23.070312 72.671875 -21.71875 L 66.546875 44.578125 C 66.546875 46.453125 66.476562 48.300781 66.34375 50.125 C 66.21875 51.957031 66.15625 53.984375 66.15625 56.203125 C 66.15625 58.753906 66.238281 60.816406 66.40625 62.390625 C 66.582031 63.960938 66.5625 65.128906 66.34375 65.890625 C 66.132812 66.660156 65.390625 67.046875 64.109375 67.046875 C 63.171875 67.046875 62.46875 66.28125 62 64.75 C 61.539062 63.21875 61.222656 61.363281 61.046875 59.1875 C 60.878906 57.019531 60.816406 54.9375 60.859375 52.9375 C 60.898438 50.9375 60.960938 49.46875 61.046875 48.53125 C 61.046875 47.507812 61.109375 46.742188 61.234375 46.234375 C 61.367188 45.722656 61.4375 44.914062 61.4375 43.8125 C 61.4375 42.28125 61.519531 40.34375 61.6875 38 C 61.851562 35.65625 62.019531 33.226562 62.1875 30.71875 C 62.363281 28.207031 62.492188 25.972656 62.578125 24.015625 L 66.546875 -13.28125 C 66.710938 -14.988281 66.898438 -16.519531 67.109375 -17.875 C 67.328125 -19.238281 67.4375 -20.816406 67.4375 -22.609375 C 66.238281 -22.015625 64.660156 -21.394531 62.703125 -20.75 C 60.742188 -20.113281 58.617188 -19.203125 56.328125 -18.015625 C 53.773438 -16.734375 51.707031 -15.707031 50.125 -14.9375 C 48.550781 -14.175781 47.164062 -13.453125 45.96875 -12.765625 C 44.78125 -12.085938 43.484375 -11.300781 42.078125 -10.40625 C 40.671875 -9.507812 38.820312 -8.335938 36.53125 -6.890625 C 36.351562 -6.804688 35.898438 -6.53125 35.171875 -6.0625 C 34.453125 -5.59375 33.773438 -5.101562 33.140625 -4.59375 C 32.503906 -4.082031 32.144531 -3.785156 32.0625 -3.703125 C 31.800781 -3.453125 31.394531 -2.257812 30.84375 -0.125 C 30.289062 2 29.546875 4.65625 28.609375 7.84375 C 27.671875 11.039062 26.519531 14.40625 25.15625 17.9375 C 23.789062 21.476562 22.148438 24.800781 20.234375 27.90625 C 18.328125 31.007812 16.113281 33.539062 13.59375 35.5 C 11.082031 37.457031 8.253906 38.4375 5.109375 38.4375 Z M 5.109375 38.4375 "/></g></g></g><g fill="#122620" fill-opacity="1"><g transform="translate(87.750708, 124.130765)"><g><path d="M 0.125 -15.578125 C 0.125 -17.453125 0.398438 -19.535156 0.953125 -21.828125 C 1.503906 -24.128906 2.226562 -26.363281 3.125 -28.53125 C 4.019531 -30.707031 4.976562 -32.476562 6 -33.84375 C 6.9375 -34.863281 7.875 -35.375 8.8125 -35.375 C 9.582031 -35.375 10.347656 -35.160156 11.109375 -34.734375 C 11.191406 -34.304688 11.296875 -34.007812 11.421875 -33.84375 C 11.554688 -33.675781 11.625 -33.296875 11.625 -32.703125 C 11.625 -32.609375 11.238281 -31.796875 10.46875 -30.265625 C 9.707031 -28.734375 8.878906 -26.816406 7.984375 -24.515625 C 7.085938 -22.222656 6.363281 -19.796875 5.8125 -17.234375 C 5.257812 -14.679688 5.238281 -12.34375 5.75 -10.21875 C 6.769531 -10.5625 7.660156 -11.222656 8.421875 -12.203125 C 9.191406 -13.179688 9.875 -14.09375 10.46875 -14.9375 L 18.140625 -26.1875 C 18.984375 -27.375 19.703125 -28.414062 20.296875 -29.3125 C 20.898438 -30.207031 21.796875 -30.65625 22.984375 -30.65625 C 24.179688 -30.65625 24.882812 -29.910156 25.09375 -28.421875 C 25.3125 -26.929688 25.351562 -25.25 25.21875 -23.375 C 25.09375 -21.5 25.070312 -20.007812 25.15625 -18.90625 C 25.582031 -15.832031 26.242188 -13.675781 27.140625 -12.4375 C 28.035156 -11.207031 29.078125 -10.59375 30.265625 -10.59375 C 31.710938 -10.59375 33.242188 -11.1875 34.859375 -12.375 C 36.484375 -13.570312 38.101562 -14.957031 39.71875 -16.53125 C 41.332031 -18.113281 42.753906 -19.5 43.984375 -20.6875 C 45.222656 -21.882812 46.144531 -22.484375 46.75 -22.484375 C 47.257812 -22.484375 47.722656 -22.375 48.140625 -22.15625 C 48.566406 -21.945312 48.78125 -21.5 48.78125 -20.8125 C 48.78125 -20.132812 48.269531 -19.21875 47.25 -18.0625 C 46.226562 -16.914062 45.117188 -15.8125 43.921875 -14.75 C 42.734375 -13.6875 41.882812 -12.898438 41.375 -12.390625 C 39.675781 -10.773438 37.828125 -9.390625 35.828125 -8.234375 C 33.828125 -7.085938 31.847656 -6.515625 29.890625 -6.515625 C 27.753906 -6.515625 26.085938 -7.085938 24.890625 -8.234375 C 23.703125 -9.390625 22.832031 -10.835938 22.28125 -12.578125 C 21.726562 -14.328125 21.367188 -16.160156 21.203125 -18.078125 C 21.035156 -19.992188 20.953125 -21.71875 20.953125 -23.25 C 20.429688 -22.90625 19.8125 -22.15625 19.09375 -21 C 18.375 -19.851562 17.800781 -18.941406 17.375 -18.265625 C 16.863281 -17.410156 16.140625 -16.238281 15.203125 -14.75 C 14.265625 -13.257812 13.21875 -11.769531 12.0625 -10.28125 C 10.914062 -8.789062 9.765625 -7.535156 8.609375 -6.515625 C 7.460938 -5.492188 6.378906 -4.984375 5.359375 -4.984375 C 3.398438 -4.984375 2.054688 -5.554688 1.328125 -6.703125 C 0.609375 -7.847656 0.226562 -9.25 0.1875 -10.90625 C 0.144531 -12.570312 0.125 -14.128906 0.125 -15.578125 Z M 0.125 -15.578125 "/></g></g></g><g fill="#122620" fill-opacity="1"><g transform="translate(130.916124, 124.130765)"><g><path d="M 0 -9.703125 C 0 -15.835938 0.144531 -21.96875 0.4375 -28.09375 C 0.738281 -34.226562 1.144531 -40.144531 1.65625 -45.84375 C 1.738281 -46.445312 1.90625 -47.851562 2.15625 -50.0625 C 2.414062 -52.28125 2.757812 -54.859375 3.1875 -57.796875 C 3.613281 -60.734375 4.125 -63.601562 4.71875 -66.40625 C 5.320312 -69.21875 6.003906 -71.5625 6.765625 -73.4375 C 7.535156 -75.3125 8.347656 -76.25 9.203125 -76.25 C 10.898438 -76.25 11.875 -75.800781 12.125 -74.90625 C 12.382812 -74.007812 12.300781 -72.796875 11.875 -71.265625 C 11.445312 -69.734375 11.066406 -67.988281 10.734375 -66.03125 C 9.617188 -59.726562 8.613281 -52.914062 7.71875 -45.59375 C 6.832031 -38.269531 6.15625 -30.988281 5.6875 -23.75 C 5.21875 -16.519531 4.984375 -9.878906 4.984375 -3.828125 C 5.148438 -4.003906 5.660156 -4.921875 6.515625 -6.578125 C 7.367188 -8.234375 8.453125 -10.335938 9.765625 -12.890625 C 11.085938 -15.453125 12.515625 -18.15625 14.046875 -21 C 15.578125 -23.851562 17.109375 -26.535156 18.640625 -29.046875 C 20.179688 -31.566406 21.566406 -33.613281 22.796875 -35.1875 C 24.035156 -36.757812 24.992188 -37.546875 25.671875 -37.546875 C 27.546875 -37.546875 28.375 -37.097656 28.15625 -36.203125 C 27.945312 -35.316406 27.242188 -34.101562 26.046875 -32.5625 C 24.859375 -31.03125 23.625 -29.203125 22.34375 -27.078125 C 22.007812 -26.566406 21.691406 -26.078125 21.390625 -25.609375 C 21.097656 -25.140625 20.78125 -24.648438 20.4375 -24.140625 C 19.664062 -22.859375 19.148438 -21.851562 18.890625 -21.125 C 18.640625 -20.40625 18.535156 -19.515625 18.578125 -18.453125 C 18.617188 -17.390625 18.769531 -15.625 19.03125 -13.15625 C 19.195312 -11.363281 19.554688 -9.082031 20.109375 -6.3125 C 20.671875 -3.550781 21.332031 -0.789062 22.09375 1.96875 C 22.863281 4.738281 23.546875 6.976562 24.140625 8.6875 C 24.816406 10.300781 25.410156 11.488281 25.921875 12.25 C 26.429688 13.019531 26.773438 13.832031 26.953125 14.6875 C 26.609375 15.03125 26.265625 15.390625 25.921875 15.765625 C 25.585938 16.148438 25.164062 16.34375 24.65625 16.34375 C 24.476562 16.34375 24.132812 16.257812 23.625 16.09375 C 22.601562 15.582031 21.726562 14.6875 21 13.40625 C 20.28125 12.132812 19.6875 10.773438 19.21875 9.328125 C 18.75 7.878906 18.347656 6.644531 18.015625 5.625 C 17.078125 2.8125 16.304688 -0.0625 15.703125 -3 C 15.109375 -5.9375 14.472656 -8.851562 13.796875 -11.75 L 8.171875 0.515625 C 7.578125 2.390625 7.046875 4.328125 6.578125 6.328125 C 6.109375 8.328125 5.597656 10.003906 5.046875 11.359375 C 4.492188 12.722656 3.789062 13.40625 2.9375 13.40625 C 1.832031 13.40625 1.128906 13 0.828125 12.1875 C 0.535156 11.382812 0.410156 10.382812 0.453125 9.1875 C 0.492188 8 0.472656 6.894531 0.390625 5.875 C 0.296875 4.9375 0.207031 4.210938 0.125 3.703125 C 0.0390625 3.191406 0 2.34375 0 1.15625 Z M 0 -9.703125 "/></g></g></g><g fill="#122620" fill-opacity="1"><g transform="translate(159.905928, 124.130765)"><g><path d="M 3.578125 -6.640625 C 1.960938 -6.640625 0.921875 -7.617188 0.453125 -9.578125 C -0.015625 -11.535156 -0.0820312 -13.984375 0.25 -16.921875 C 0.59375 -19.859375 1.210938 -22.796875 2.109375 -25.734375 C 3.003906 -28.671875 4.003906 -31.117188 5.109375 -33.078125 C 6.210938 -35.035156 7.234375 -36.015625 8.171875 -36.015625 C 9.617188 -36.015625 10.300781 -35.351562 10.21875 -34.03125 C 10.132812 -32.71875 9.707031 -30.972656 8.9375 -28.796875 C 8.175781 -26.628906 7.410156 -24.242188 6.640625 -21.640625 C 5.867188 -19.046875 5.484375 -16.515625 5.484375 -14.046875 L 11.625 -23.375 C 11.875 -23.882812 12.425781 -24.773438 13.28125 -26.046875 C 14.132812 -27.328125 15.09375 -28.519531 16.15625 -29.625 C 17.21875 -30.738281 18.257812 -31.296875 19.28125 -31.296875 C 20.300781 -31.296875 21.113281 -30.613281 21.71875 -29.25 L 22.484375 -22.09375 C 22.484375 -21.332031 22.523438 -20.140625 22.609375 -18.515625 C 22.691406 -16.898438 22.878906 -15.257812 23.171875 -13.59375 C 23.472656 -11.9375 23.960938 -10.507812 24.640625 -9.3125 C 25.328125 -8.125 26.265625 -7.53125 27.453125 -7.53125 C 28.734375 -7.53125 30.078125 -8.296875 31.484375 -9.828125 C 32.890625 -11.367188 34.25 -13.140625 35.5625 -15.140625 C 36.882812 -17.140625 38.078125 -18.90625 39.140625 -20.4375 C 40.210938 -21.96875 41.046875 -22.734375 41.640625 -22.734375 C 42.910156 -22.734375 43.503906 -22.242188 43.421875 -21.265625 C 43.335938 -20.285156 42.910156 -19.15625 42.140625 -17.875 C 41.378906 -16.601562 40.59375 -15.410156 39.78125 -14.296875 C 38.976562 -13.191406 38.488281 -12.515625 38.3125 -12.265625 C 37.71875 -11.492188 36.910156 -10.507812 35.890625 -9.3125 C 34.867188 -8.125 33.800781 -7.019531 32.6875 -6 C 31.582031 -4.976562 30.519531 -4.34375 29.5 -4.09375 C 28.644531 -3.832031 27.835938 -3.703125 27.078125 -3.703125 C 25.117188 -3.703125 23.5625 -4.425781 22.40625 -5.875 C 21.257812 -7.320312 20.390625 -8.894531 19.796875 -10.59375 C 18.941406 -13.15625 18.472656 -15.4375 18.390625 -17.4375 C 18.304688 -19.4375 18.304688 -21.140625 18.390625 -22.546875 C 18.472656 -23.953125 18.300781 -25.035156 17.875 -25.796875 C 16.851562 -25.117188 15.769531 -23.753906 14.625 -21.703125 C 13.476562 -19.660156 12.285156 -17.46875 11.046875 -15.125 C 9.816406 -12.789062 8.582031 -10.789062 7.34375 -9.125 C 6.101562 -7.46875 4.847656 -6.640625 3.578125 -6.640625 Z M 3.578125 -6.640625 "/></g></g></g><g fill="#122620" fill-opacity="1"><g transform="translate(198.218428, 124.130765)"><g><path d="M 5.875 -23.109375 C 7.488281 -23.960938 9.273438 -25.132812 11.234375 -26.625 C 13.191406 -28.113281 14.257812 -29.878906 14.4375 -31.921875 C 13.320312 -31.753906 12.144531 -31.160156 10.90625 -30.140625 C 9.675781 -29.117188 8.613281 -27.96875 7.71875 -26.6875 C 6.832031 -25.414062 6.21875 -24.222656 5.875 -23.109375 Z M 0.125 -20.046875 C 0.125 -22.179688 0.828125 -24.484375 2.234375 -26.953125 C 3.640625 -29.421875 5.382812 -31.523438 7.46875 -33.265625 C 9.550781 -35.015625 11.617188 -35.890625 13.671875 -35.890625 C 16.472656 -35.890625 17.9375 -34.820312 18.0625 -32.6875 C 18.195312 -30.5625 17.285156 -28.265625 15.328125 -25.796875 C 14.304688 -24.691406 12.769531 -23.414062 10.71875 -21.96875 C 8.675781 -20.519531 6.675781 -19.710938 4.71875 -19.546875 C 4.71875 -18.179688 4.757812 -16.960938 4.84375 -15.890625 C 4.9375 -14.828125 5.535156 -13.742188 6.640625 -12.640625 C 7.742188 -11.535156 9.148438 -10.984375 10.859375 -10.984375 C 13.066406 -10.984375 15.363281 -11.6875 17.75 -13.09375 C 20.132812 -14.5 21.96875 -15.671875 23.25 -16.609375 C 23.757812 -17.023438 24.160156 -17.363281 24.453125 -17.625 C 24.753906 -17.882812 25.117188 -18.179688 25.546875 -18.515625 C 27.328125 -19.878906 28.453125 -20.878906 28.921875 -21.515625 C 29.390625 -22.160156 29.796875 -22.585938 30.140625 -22.796875 C 30.484375 -23.003906 31.289062 -23.109375 32.5625 -23.109375 C 32.738281 -22.179688 32.804688 -21.546875 32.765625 -21.203125 C 32.722656 -20.859375 32.398438 -20.347656 31.796875 -19.671875 C 30.265625 -18.140625 28.328125 -16.394531 25.984375 -14.4375 C 23.648438 -12.476562 21.140625 -10.773438 18.453125 -9.328125 C 15.773438 -7.878906 13.113281 -7.15625 10.46875 -7.15625 C 9.101562 -7.15625 7.800781 -7.390625 6.5625 -7.859375 C 5.332031 -8.328125 4.164062 -9.113281 3.0625 -10.21875 C 1.53125 -11.75 0.65625 -13.320312 0.4375 -14.9375 C 0.226562 -16.5625 0.125 -18.265625 0.125 -20.046875 Z M 0.125 -20.046875 "/></g></g></g><g fill="#122620" fill-opacity="1"><g transform="translate(225.931148, 124.130765)"><g><path d="M 1.78125 -0.515625 C 0.9375 -0.515625 0.425781 -1.046875 0.25 -2.109375 C 0.0820312 -3.171875 0.0390625 -4.296875 0.125 -5.484375 C 0.207031 -6.679688 0.25 -7.40625 0.25 -7.65625 C 0.164062 -9.195312 0.144531 -10.753906 0.1875 -12.328125 C 0.226562 -13.898438 0.207031 -15.492188 0.125 -17.109375 C 0.125 -17.710938 0.144531 -18.84375 0.1875 -20.5 C 0.226562 -22.15625 0.351562 -23.921875 0.5625 -25.796875 C 0.78125 -27.671875 1.101562 -29.289062 1.53125 -30.65625 C 1.957031 -32.019531 2.507812 -32.703125 3.1875 -32.703125 C 4.894531 -32.703125 5.769531 -32.144531 5.8125 -31.03125 C 5.851562 -29.925781 5.789062 -28.476562 5.625 -26.6875 C 5.53125 -26.09375 5.484375 -25.429688 5.484375 -24.703125 C 5.484375 -23.984375 5.484375 -23.285156 5.484375 -22.609375 C 5.484375 -21.753906 5.441406 -21.195312 5.359375 -20.9375 C 5.273438 -20.6875 5.234375 -20.132812 5.234375 -19.28125 C 6.171875 -19.96875 7.019531 -20.753906 7.78125 -21.640625 C 8.550781 -22.535156 9.914062 -22.984375 11.875 -22.984375 C 12.46875 -22.984375 13.253906 -23.003906 14.234375 -23.046875 C 15.210938 -23.085938 16.257812 -23.109375 17.375 -23.109375 C 19.238281 -23.109375 20.976562 -23.003906 22.59375 -22.796875 C 24.21875 -22.585938 25.03125 -22.054688 25.03125 -21.203125 C 25.03125 -20.347656 24.582031 -19.789062 23.6875 -19.53125 C 22.789062 -19.28125 21.707031 -19.15625 20.4375 -19.15625 C 19.582031 -19.15625 18.707031 -19.175781 17.8125 -19.21875 C 16.914062 -19.257812 16.128906 -19.28125 15.453125 -19.28125 C 13.066406 -19.28125 11.46875 -19.148438 10.65625 -18.890625 C 9.851562 -18.640625 8.941406 -17.664062 7.921875 -15.96875 C 7.328125 -14.851562 6.75 -13.65625 6.1875 -12.375 C 5.632812 -11.101562 5.234375 -9.703125 4.984375 -8.171875 C 4.722656 -7.066406 4.613281 -5.914062 4.65625 -4.71875 C 4.695312 -3.53125 4.566406 -2.53125 4.265625 -1.71875 C 3.972656 -0.914062 3.144531 -0.515625 1.78125 -0.515625 Z M 1.78125 -0.515625 "/></g></g></g></g></g><path fill="#fffef9" d="M 233.738281 274.109375 C 230.085938 276.058594 226.324219 277.78125 222.460938 279.273438 C 218.597656 280.765625 214.65625 282.019531 210.640625 283.03125 C 206.625 284.042969 202.558594 284.808594 198.449219 285.328125 C 194.339844 285.84375 190.214844 286.113281 186.070312 286.125 C 181.929688 286.140625 177.800781 285.90625 173.6875 285.417969 C 169.574219 284.929688 165.503906 284.191406 161.480469 283.210938 C 157.457031 282.226562 153.507812 281 149.632812 279.535156 C 145.757812 278.070312 141.984375 276.375 138.316406 274.453125 L 148.878906 254.316406 C 151.730469 255.8125 154.660156 257.128906 157.671875 258.269531 C 160.683594 259.40625 163.753906 260.359375 166.878906 261.121094 C 170.007812 261.886719 173.167969 262.457031 176.363281 262.839844 C 179.5625 263.21875 182.769531 263.402344 185.988281 263.390625 C 189.207031 263.378906 192.414062 263.171875 195.609375 262.769531 C 198.800781 262.367188 201.960938 261.773438 205.082031 260.984375 C 208.203125 260.199219 211.265625 259.222656 214.269531 258.0625 C 217.269531 256.902344 220.191406 255.566406 223.03125 254.050781 Z M 233.738281 274.109375 " fill-opacity="1" fill-rule="nonzero"/><g fill="#122620" fill-opacity="1"><g transform="translate(144.722278, 271.339835)"><g><path d="M 11.84375 -3.875 L 10.515625 -4.421875 C 10.710938 -4.984375 10.738281 -5.472656 10.59375 -5.890625 C 10.445312 -6.304688 10.207031 -6.660156 9.875 -6.953125 C 9.539062 -7.242188 9.175781 -7.46875 8.78125 -7.625 C 8.5625 -7.71875 8.300781 -7.800781 8 -7.875 C 7.707031 -7.945312 7.40625 -7.96875 7.09375 -7.9375 C 6.789062 -7.914062 6.507812 -7.8125 6.25 -7.625 C 5.988281 -7.445312 5.773438 -7.160156 5.609375 -6.765625 C 5.492188 -6.472656 5.460938 -6.207031 5.515625 -5.96875 C 5.566406 -5.726562 5.753906 -5.460938 6.078125 -5.171875 C 6.410156 -4.890625 6.90625 -4.515625 7.5625 -4.046875 C 8.289062 -3.523438 8.878906 -3.0625 9.328125 -2.65625 C 9.773438 -2.257812 10.097656 -1.882812 10.296875 -1.53125 C 10.492188 -1.175781 10.585938 -0.8125 10.578125 -0.4375 C 10.566406 -0.0703125 10.472656 0.335938 10.296875 0.796875 C 10.046875 1.410156 9.707031 1.875 9.28125 2.1875 C 8.851562 2.5 8.382812 2.6875 7.875 2.75 C 7.363281 2.820312 6.847656 2.8125 6.328125 2.71875 C 5.804688 2.625 5.320312 2.488281 4.875 2.3125 C 3.976562 1.945312 3.300781 1.53125 2.84375 1.0625 C 2.382812 0.601562 2.078125 0.125 1.921875 -0.375 C 1.773438 -0.875 1.726562 -1.363281 1.78125 -1.84375 C 1.832031 -2.320312 1.9375 -2.753906 2.09375 -3.140625 L 3.453125 -2.578125 C 3.253906 -2.097656 3.175781 -1.664062 3.21875 -1.28125 C 3.269531 -0.894531 3.394531 -0.546875 3.59375 -0.234375 C 3.800781 0.0664062 4.054688 0.328125 4.359375 0.546875 C 4.671875 0.765625 4.992188 0.941406 5.328125 1.078125 C 5.585938 1.179688 5.882812 1.273438 6.21875 1.359375 C 6.550781 1.441406 6.890625 1.472656 7.234375 1.453125 C 7.578125 1.441406 7.890625 1.359375 8.171875 1.203125 C 8.460938 1.054688 8.6875 0.796875 8.84375 0.421875 C 8.957031 0.140625 9.019531 -0.109375 9.03125 -0.328125 C 9.039062 -0.546875 8.957031 -0.78125 8.78125 -1.03125 C 8.601562 -1.28125 8.300781 -1.582031 7.875 -1.9375 C 7.457031 -2.289062 6.859375 -2.734375 6.078125 -3.265625 C 5.515625 -3.648438 5.050781 -4.03125 4.6875 -4.40625 C 4.320312 -4.78125 4.082031 -5.1875 3.96875 -5.625 C 3.851562 -6.070312 3.910156 -6.578125 4.140625 -7.140625 C 4.367188 -7.691406 4.707031 -8.164062 5.15625 -8.5625 C 5.613281 -8.957031 6.171875 -9.203125 6.828125 -9.296875 C 7.492188 -9.398438 8.253906 -9.28125 9.109375 -8.9375 C 9.835938 -8.632812 10.414062 -8.300781 10.84375 -7.9375 C 11.28125 -7.582031 11.59375 -7.210938 11.78125 -6.828125 C 11.96875 -6.453125 12.078125 -6.082031 12.109375 -5.71875 C 12.148438 -5.363281 12.140625 -5.023438 12.078125 -4.703125 C 12.015625 -4.390625 11.9375 -4.113281 11.84375 -3.875 Z M 11.84375 -3.875 "/></g></g></g><g fill="#122620" fill-opacity="1"><g transform="translate(168.008607, 278.897503)"><g><path d="M 7.921875 -2.3125 L 3.40625 -2.90625 L 1.796875 0.234375 L 0.21875 0.03125 L 5.96875 -10.71875 L 7.703125 -10.5 L 10.265625 1.359375 L 8.609375 1.140625 Z M 4.046875 -4.171875 L 7.546875 -3.703125 L 6.546875 -8.921875 L 6.515625 -8.9375 Z M 4.046875 -4.171875 "/></g></g></g><g fill="#122620" fill-opacity="1"><g transform="translate(192.518742, 280.354578)"><g><path d="M 2.0625 -5.1875 L 2.6875 -0.34375 L 1.140625 -0.140625 L -0.3125 -11.453125 L 4.921875 -12.125 C 5.378906 -12.1875 5.835938 -12.195312 6.296875 -12.15625 C 6.765625 -12.125 7.1875 -12.015625 7.5625 -11.828125 C 7.9375 -11.640625 8.253906 -11.363281 8.515625 -11 C 8.785156 -10.632812 8.957031 -10.160156 9.03125 -9.578125 C 9.101562 -9.015625 9.082031 -8.550781 8.96875 -8.1875 C 8.851562 -7.820312 8.6875 -7.519531 8.46875 -7.28125 C 8.25 -7.039062 8.03125 -6.832031 7.8125 -6.65625 C 7.9375 -6.582031 8.085938 -6.507812 8.265625 -6.4375 C 8.441406 -6.375 8.613281 -6.285156 8.78125 -6.171875 C 8.945312 -6.066406 9.09375 -5.894531 9.21875 -5.65625 C 9.34375 -5.414062 9.429688 -5.097656 9.484375 -4.703125 L 9.75 -2.640625 C 9.789062 -2.335938 9.863281 -2.113281 9.96875 -1.96875 C 10.070312 -1.832031 10.242188 -1.710938 10.484375 -1.609375 L 10.515625 -1.34375 L 8.65625 -1.109375 C 8.59375 -1.273438 8.523438 -1.488281 8.453125 -1.75 C 8.378906 -2.019531 8.3125 -2.300781 8.25 -2.59375 C 8.195312 -2.894531 8.148438 -3.164062 8.109375 -3.40625 C 8.078125 -3.644531 8.054688 -3.816406 8.046875 -3.921875 C 8.003906 -4.222656 7.921875 -4.519531 7.796875 -4.8125 C 7.671875 -5.113281 7.445312 -5.347656 7.125 -5.515625 C 6.8125 -5.691406 6.351562 -5.738281 5.75 -5.65625 Z M 1.40625 -10.34375 L 1.90625 -6.5 L 5.4375 -6.953125 C 5.800781 -7.003906 6.15625 -7.097656 6.5 -7.234375 C 6.84375 -7.367188 7.109375 -7.59375 7.296875 -7.90625 C 7.492188 -8.21875 7.554688 -8.65625 7.484375 -9.21875 C 7.429688 -9.644531 7.320312 -9.976562 7.15625 -10.21875 C 6.988281 -10.457031 6.785156 -10.617188 6.546875 -10.703125 C 6.316406 -10.796875 6.082031 -10.847656 5.84375 -10.859375 C 5.601562 -10.867188 5.394531 -10.859375 5.21875 -10.828125 Z M 1.40625 -10.34375 "/></g></g></g><g fill="#122620" fill-opacity="1"><g transform="translate(217.202402, 275.32767)"><g><path d="M 5.734375 -5.921875 L 1.53125 -4.203125 L 1.671875 -0.6875 L 0.203125 -0.078125 L -0.125 -12.25 L 1.5 -12.921875 L 9.59375 -3.90625 L 8.046875 -3.265625 Z M 1.453125 -5.640625 L 4.71875 -6.96875 L 1.28125 -10.984375 L 1.25 -10.984375 Z M 1.453125 -5.640625 "/></g></g></g></svg>